<svg width="26" height="26" viewBox="0 0 26 26" fill="none" xmlns="http://www.w3.org/2000/svg">
<path d="M13.6296 2.91012C13.2529 2.64106 12.7469 2.64106 12.3702 2.91012L2.07858 10.2613L3.33794 12.0243L12.9999 5.12297L22.6619 12.0243L23.9213 10.2613L13.6296 2.91012ZM21.213 13.7435L13.6296 8.32679C13.2529 8.05773 12.7469 8.05773 12.3702 8.32679L4.78692 13.7435C4.50223 13.9468 4.33326 14.2751 4.33326 14.625V21.6667C4.33326 22.265 4.81828 22.75 5.41659 22.75H20.5832C21.1815 22.75 21.6666 22.265 21.6666 21.6667V14.625C21.6666 14.2751 21.4977 13.9468 21.213 13.7435ZM6.49993 20.5833V15.1825L12.9999 10.5396L19.4999 15.1825V20.5833H6.49993Z" fill="black"/>
</svg>
