<svg width="23" height="23" viewBox="0 0 23 23" fill="none" xmlns="http://www.w3.org/2000/svg">
<path d="M11.3669 2.29096C12.3141 1.65948 13.5447 1.64639 14.5051 2.25758L18.4872 4.79161H20.1248C20.6541 4.79161 21.0831 5.22068 21.0831 5.74994V14.3749C21.0831 14.9042 20.6541 15.3332 20.1248 15.3332H18.6684C18.7254 16.2411 18.2977 17.1639 17.4373 17.6802L12.5562 20.609C11.94 20.9786 11.175 20.97 10.5717 20.6017C9.90063 21.1952 8.86754 21.2605 8.11807 20.6716L3.19151 16.8007C2.45703 16.2237 2.2713 15.2378 2.65054 14.4562C2.18737 14.093 1.91666 13.5368 1.91666 12.9479V5.75C1.91666 5.22073 2.34572 4.79167 2.87499 4.79167H7.6158L11.3669 2.29096ZM3.99877 13.0767L4.66197 12.4964C5.84092 11.4647 7.62873 11.5669 8.6825 12.7261L11.2721 15.5746C12.1054 16.4913 12.2574 17.8379 11.6513 18.9165L16.4512 16.0367C16.7209 15.8749 16.8185 15.5515 16.7179 15.279L12.4753 9.33945C12.2369 9.0058 11.8128 8.86073 11.4201 8.97855L9.03837 9.69306C8.02531 9.99695 6.92719 9.72009 6.17931 8.97225L5.89874 8.69168C5.3544 8.14734 5.21363 7.37263 5.4427 6.70833H3.83332V12.9479L3.99877 13.0767ZM13.4762 3.8746C13.156 3.67087 12.7458 3.67523 12.4301 3.88573L7.25403 7.3364L7.5346 7.61697C7.78389 7.86626 8.14993 7.95854 8.48762 7.85723L10.8693 7.14272C12.0475 6.78927 13.3201 7.22448 14.035 8.2254L17.743 13.4166H19.1665V6.70828H18.4872C18.1226 6.70828 17.7657 6.60434 17.4581 6.40864L13.4762 3.8746ZM5.9241 13.9388L4.37567 15.2937L9.30223 19.1646L9.97682 17.984C10.1829 17.6235 10.1332 17.1712 9.85386 16.8639L7.26428 14.0153C6.91302 13.6289 6.31708 13.5949 5.9241 13.9388Z" fill="black"/>
</svg>
