<svg width="28" height="28" viewBox="0 0 28 28" fill="none" xmlns="http://www.w3.org/2000/svg">
<g clip-path="url(#clip0_74_188)">
<path d="M13.1797 9.02344C13.1797 8.57013 12.8127 8.20312 12.3594 8.20312H11.0584L12.9394 6.32217C13.1741 6.0874 13.2446 5.73492 13.1173 5.42816C12.9906 5.1214 12.6909 4.92188 12.3594 4.92188H9.07813C8.62482 4.92188 8.25782 5.28888 8.25782 5.74219C8.25782 6.1955 8.62482 6.5625 9.07813 6.5625H10.3791L8.49814 8.44345C8.26337 8.67822 8.19288 9.0307 8.32019 9.33746C8.44687 9.64423 8.74637 9.84375 9.07813 9.84375H12.3594C12.8127 9.84375 13.1797 9.47675 13.1797 9.02344Z" fill="#1C2D37"/>
<path d="M14.8828 4.41559C15.0093 4.72235 15.309 4.92188 15.6406 4.92188H18.9218C19.3751 4.92188 19.7421 4.55487 19.7421 4.10156C19.7421 3.64825 19.3751 3.28125 18.9218 3.28125H17.6209L19.5018 1.4003C19.7366 1.16553 19.8071 0.813049 19.6798 0.506287C19.5531 0.199524 19.2534 0 18.9218 0H15.6406C15.1873 0 14.8203 0.367004 14.8203 0.820312C14.8203 1.27362 15.1873 1.64062 15.6406 1.64062H16.9415L15.0606 3.52158C14.8258 3.75635 14.7553 4.10883 14.8828 4.41559Z" fill="#1C2D37"/>
<path d="M25.5391 13.125H14C12.6431 13.125 11.5391 14.229 11.5391 15.5859V18.8672C11.5391 19.3205 11.9061 19.6875 12.3594 19.6875H28V15.5859C28 14.229 26.896 13.125 25.5391 13.125Z" fill="#1C2D37"/>
<path d="M9.89844 18.8672V18.0469H1.64062V9.02344C1.64062 8.57013 1.27362 8.20312 0.820312 8.20312C0.367004 8.20312 0 8.57013 0 9.02344V27.1797C0 27.633 0.367004 28 0.820312 28C1.27362 28 1.64062 27.633 1.64062 27.1797V24.6641H26.3594V27.1797C26.3594 27.6328 26.7266 28 27.1797 28C27.6328 28 28 27.6328 28 27.1797V21.3281H12.3594C11.0003 21.3281 9.89844 20.2263 9.89844 18.8672Z" fill="#1C2D37"/>
<path d="M9.89844 13.9453C9.89844 15.3044 8.79657 16.4062 7.4375 16.4062C6.07843 16.4062 4.97656 15.3044 4.97656 13.9453C4.97656 12.5862 6.07843 11.4844 7.4375 11.4844C8.79657 11.4844 9.89844 12.5862 9.89844 13.9453Z" fill="#1C2D37"/>
</g>
<defs>
<clipPath id="clip0_74_188">
<rect width="28" height="28" fill="white"/>
</clipPath>
</defs>
</svg>
