<svg width="10" height="18" viewBox="0 0 10 18" fill="none" xmlns="http://www.w3.org/2000/svg">
<path d="M6.2341 8.4373H5.95697V3.37489H9.28149C9.5876 3.37489 9.83554 3.1228 9.83554 2.81245C9.83554 2.50189 9.58759 2.25001 9.28149 2.25001H5.95697V0.56244C5.95697 0.251885 5.70903 0 5.40293 0C5.09683 0 4.84888 0.252091 4.84888 0.56244V2.25001H4.57176C2.58587 2.25001 0.970093 3.89027 0.970093 5.90624C0.970093 7.92222 2.58587 9.56248 4.57176 9.56248H4.84888V14.6249L1.52437 14.6247C1.21825 14.6247 0.970321 14.8768 0.970321 15.1871C0.970321 15.4977 1.21826 15.7496 1.52437 15.7496H4.84888V17.4371C4.84888 17.7477 5.09683 17.9996 5.40293 17.9996C5.70903 17.9996 5.95697 17.7475 5.95697 17.4371V15.7496H6.2341C8.21998 15.7496 9.83576 14.1093 9.83576 12.0933C9.83576 10.0776 8.21998 8.4373 6.2341 8.4373V8.4373ZM4.84886 8.4373H4.57174C3.19674 8.4373 2.07841 7.30202 2.07841 5.90619C2.07841 4.51037 3.19674 3.37509 4.57174 3.37509H4.84886V8.4373ZM6.2341 14.6247H5.95697V9.56228H6.2341C7.60909 9.56228 8.72743 10.6976 8.72743 12.0934C8.72743 13.4894 7.60909 14.6247 6.2341 14.6247Z" fill="#D6A643"/>
</svg>
