<svg width="49" height="49" viewBox="0 0 49 49" fill="none" xmlns="http://www.w3.org/2000/svg">
<path d="M20.4075 23.0509C20.3943 22.3209 20.1601 21.611 19.7345 21.0102C19.3089 20.4095 18.7108 19.9448 18.0152 19.6743C17.3196 19.4038 16.5576 19.3397 15.8248 19.49C15.092 19.6403 14.4211 19.9983 13.8962 20.5191C13.3714 21.0399 13.016 21.7002 12.8747 22.4172C12.7334 23.1342 12.8125 23.876 13.102 24.5493C13.3916 25.2227 13.8787 25.7976 14.5022 26.202C15.1257 26.6064 15.8578 26.8221 16.6067 26.8223C17.6232 26.8123 18.5942 26.4097 19.3067 25.7027C20.0192 24.9957 20.4151 24.0421 20.4075 23.0509ZM14.2261 23.0509C14.2345 22.5935 14.3814 22.1485 14.6482 21.7721C14.915 21.3957 15.29 21.1046 15.7259 20.9352C16.1619 20.7658 16.6395 20.7258 17.0987 20.8201C17.5579 20.9145 17.9783 21.139 18.3071 21.4655C18.6359 21.792 18.8584 22.2059 18.9468 22.6553C19.0352 23.1047 18.9854 23.5695 18.8037 23.9914C18.6221 24.4133 18.3166 24.7735 17.9257 25.0267C17.5349 25.28 17.076 25.4149 16.6067 25.4148C15.9701 25.4078 15.3624 25.1551 14.9167 24.712C14.4709 24.2689 14.2235 23.6716 14.2287 23.0509H14.2261Z" fill="#211E1E"/>
<path d="M17.6301 10.1551C17.8217 10.1551 18.0055 10.0809 18.141 9.94879C18.2765 9.81669 18.3526 9.63754 18.3526 9.45073C18.3526 9.26392 18.2765 9.08474 18.141 8.95264C18.0055 8.82055 17.8217 8.74634 17.6301 8.74634H15.583C15.3914 8.74634 15.2077 8.82055 15.0722 8.95264C14.9367 9.08474 14.8606 9.26392 14.8606 9.45073C14.8606 9.63754 14.9367 9.81669 15.0722 9.94879C15.2077 10.0809 15.3914 10.1551 15.583 10.1551H17.6301Z" fill="#211E1E"/>
<path d="M47.7476 46.6408H42.3274C42.4891 46.472 42.6333 46.288 42.7578 46.0914C43.0141 45.6881 43.1851 45.2389 43.2609 44.7702C43.3366 44.3016 43.3155 43.8228 43.1989 43.3622C43.0822 42.9016 42.8723 42.4684 42.5815 42.0879C42.2907 41.7075 41.9249 41.3876 41.5055 41.147L38.2875 39.1309L41.6476 37.0291C42.0444 36.7809 42.3871 36.4588 42.6561 36.0813C42.9251 35.7038 43.1151 35.2783 43.2153 34.8291C43.4261 33.9193 43.2613 32.9652 42.7565 32.1729C42.0612 31.0792 41.2392 30.9129 38.2875 28.9711L41.6476 26.8693C42.4455 26.3608 43.008 25.5683 43.2151 24.6611C43.4223 23.7539 43.2577 22.8037 42.7565 22.0131C42.4323 21.5014 41.9767 21.081 41.4347 20.7937C40.8927 20.5064 40.2832 20.3621 39.6664 20.375H33.8637C33.6776 20.3827 33.5017 20.4602 33.3728 20.5914C33.2438 20.7225 33.1719 20.8971 33.1719 21.0788C33.1719 21.2604 33.2438 21.4351 33.3728 21.5662C33.5017 21.6973 33.6776 21.7748 33.8637 21.7825H36.4808L31.7572 24.7386H27.4924V21.7838H31.0296C31.2157 21.7761 31.3916 21.6986 31.5206 21.5675C31.6495 21.4363 31.7215 21.2617 31.7215 21.08C31.7215 20.8984 31.6495 20.7238 31.5206 20.5926C31.3916 20.4615 31.2157 20.384 31.0296 20.3763H27.4304C27.3104 19.8814 27.0234 19.4402 26.6153 19.1235C26.2073 18.8067 25.7019 18.6329 25.1804 18.6299H24.6789V13.1171H27.3399C27.4873 13.1165 27.6308 13.0712 27.7505 12.9874C27.8703 12.9036 27.9603 12.7856 28.0081 12.6497C28.0575 12.5132 28.0632 12.3653 28.0241 12.2257C27.9851 12.0861 27.9033 11.9615 27.7896 11.8684L17.3215 3.33913V0.693013C17.3215 0.50921 17.2466 0.332927 17.1133 0.202959C16.98 0.0729907 16.7992 0 16.6107 0C16.4222 0 16.2414 0.0729907 16.1081 0.202959C15.9748 0.332927 15.8999 0.50921 15.8999 0.693013V3.33913L11.5783 6.85845C11.4327 6.97874 11.341 7.14966 11.3226 7.33486C11.3043 7.52005 11.3608 7.70487 11.48 7.8501C11.5385 7.92133 11.6109 7.98048 11.6931 8.02402C11.7752 8.06757 11.8655 8.09466 11.9586 8.1037C12.0517 8.11274 12.1457 8.10355 12.235 8.07667C12.3244 8.04978 12.4074 8.00575 12.479 7.94715L16.6146 4.5828L25.3652 11.7084H7.85756L10.273 9.74398C10.4185 9.62392 10.5102 9.45321 10.5285 9.26823C10.5468 9.08325 10.4904 8.89859 10.3712 8.75357C10.3129 8.68219 10.2405 8.62294 10.1583 8.5793C10.0761 8.53565 9.98583 8.50851 9.89271 8.49946C9.79958 8.49042 9.70555 8.49967 9.61615 8.52665C9.52675 8.55363 9.4438 8.59779 9.3722 8.65655L5.42404 11.8709C5.31077 11.9643 5.22932 12.089 5.19053 12.2286C5.15175 12.3681 5.15747 12.5158 5.20692 12.6522C5.25487 12.788 5.34492 12.906 5.46462 12.9897C5.58432 13.0735 5.72775 13.1188 5.87507 13.1196H8.53605V15.7531V25.2035C8.53605 25.3873 8.61093 25.5636 8.74423 25.6936C8.87753 25.8236 9.05833 25.8966 9.24684 25.8966C9.43536 25.8966 9.61615 25.8236 9.74945 25.6936C9.88276 25.5636 9.95764 25.3873 9.95764 25.2035V16.4525H23.269V29.6528H9.95506V28.0147C9.95506 27.8309 9.88017 27.6546 9.74687 27.5247C9.61357 27.3947 9.43278 27.3217 9.24426 27.3217C9.05574 27.3217 8.87495 27.3947 8.74165 27.5247C8.60835 27.6546 8.53346 27.8309 8.53346 28.0147V46.6383H0.72243C0.53083 46.6383 0.347077 46.7125 0.211595 46.8446C0.0761129 46.9767 0 47.1558 0 47.3426C0 47.5295 0.0761129 47.7086 0.211595 47.8407C0.347077 47.9728 0.53083 48.047 0.72243 48.047H47.7476C47.9392 48.047 48.1229 47.9728 48.2584 47.8407C48.3939 47.7086 48.47 47.5295 48.47 47.3426C48.47 47.1558 48.3939 46.9767 48.2584 46.8446C48.1229 46.7125 47.9392 46.6383 47.7476 46.6383V46.6408ZM18.3993 39.7924H14.8156V37.7688H18.3993V39.7924ZM18.3993 36.36H14.8156V34.3351H18.3993V36.36ZM14.8156 41.2012H18.3993V43.2261H14.8156V41.2012ZM18.3993 31.0603V32.9289H14.8156V31.0628L18.3993 31.0603ZM14.8156 44.6348H18.3993V46.6408H14.8156V44.6348ZM19.8184 31.0603H23.2599V46.6408H19.8184V31.0603ZM24.6789 30.3572V27.8887H25.1804C25.7017 27.8857 26.207 27.7121 26.615 27.3956C27.023 27.0792 27.3102 26.6382 27.4304 26.1435H29.5266C28.805 26.6802 28.314 27.4593 28.1489 28.3294C27.9839 29.1995 28.1566 30.0983 28.6336 30.8511C29.312 31.9184 29.9828 32.0116 33.1025 34.0529L29.7372 36.1559C29.3404 36.4042 28.9977 36.7263 28.7288 37.1038C28.4598 37.4813 28.2698 37.9068 28.1696 38.356C27.9589 39.2654 28.1237 40.2191 28.6284 41.0109C29.3495 42.1449 29.8264 42.0618 36.9783 46.6421H24.6789V30.3572ZM37.6439 42.8934C37.8339 42.592 38.1 42.3432 38.4168 42.1707C38.7335 41.9982 39.0904 41.9078 39.4532 41.9081C39.8544 41.9079 40.2471 42.0208 40.584 42.2331L40.8955 42.4272C41.3733 42.733 41.71 43.2083 41.8343 43.7522C41.9586 44.2961 41.8605 44.8658 41.561 45.3404C41.4152 45.5744 41.2228 45.7776 40.9953 45.938C40.7677 46.0984 40.5095 46.2128 40.2359 46.2744C39.9623 46.3361 39.6788 46.3437 39.4021 46.2969C39.1254 46.2501 38.8611 46.1498 38.6248 46.002L38.312 45.8067C37.8348 45.5007 37.4986 45.0255 37.3746 44.4819C37.2506 43.9383 37.3486 43.369 37.6478 42.8947L37.6439 42.8934ZM38.1815 40.7324C37.4596 41.0046 36.8491 41.4999 36.4433 42.1424C36.0315 42.7885 35.8439 43.5466 35.9083 44.3047L32.8996 42.4221C34.3069 41.6925 35.6626 40.8721 36.9577 39.9663L38.1815 40.7324ZM41.8324 34.5204C41.7724 34.7898 41.6583 35.045 41.4969 35.2714C41.3354 35.4978 41.1297 35.6909 40.8916 35.8396C32.5171 40.9542 32.7097 41.2465 31.6383 41.2465C31.2753 41.2468 30.9184 41.1562 30.6016 40.9834C30.2848 40.8107 30.0188 40.5616 29.829 40.2599C29.526 39.7849 29.4271 39.2127 29.5537 38.6672C29.6138 38.3976 29.7278 38.1422 29.8892 37.9156C30.0507 37.689 30.2564 37.4957 30.4946 37.3467L38.6158 32.2661C38.9534 32.0543 39.3463 31.9415 39.7479 31.941C40.1107 31.9407 40.4676 32.0311 40.7844 32.2036C41.1011 32.3761 41.3672 32.625 41.5572 32.9264C41.8601 33.4018 41.959 33.9744 41.8324 34.5204ZM38.4904 30.7642C38.2715 30.8476 38.0615 30.9518 37.8636 31.0754L34.4337 33.2175L32.8996 32.2573C34.3073 31.5284 35.663 30.7079 36.9577 29.8015L38.4904 30.7642ZM41.5572 22.7666C41.8567 23.2412 41.9547 23.8109 41.8304 24.3549C41.7061 24.8988 41.3694 25.3741 40.8916 25.6799L32.7704 30.7604C32.4383 30.9685 32.0527 31.0811 31.658 31.0854C31.2632 31.0896 30.8752 30.9853 30.5385 30.7843L30.4997 30.7604L30.4829 30.7503C30.2215 30.5821 30.0009 30.3602 29.8367 30.1001C29.5372 29.6255 29.4392 29.0558 29.5635 28.5119C29.6878 27.9679 30.0245 27.4927 30.5023 27.1869L38.6235 22.1064C38.9609 21.894 39.354 21.7811 39.7556 21.7813C40.1185 21.7809 40.4753 21.8713 40.7921 22.0438C41.1089 22.2163 41.375 22.4652 41.5649 22.7666H41.5572ZM25.1804 20.0348C25.3002 20.0348 25.4187 20.058 25.5293 20.103C25.6398 20.1481 25.74 20.214 25.8242 20.2971C25.9084 20.3803 25.9748 20.4788 26.0195 20.5872C26.0643 20.6955 26.0866 20.8114 26.085 20.9282V25.5904C26.0866 25.7072 26.0643 25.8231 26.0195 25.9314C25.9748 26.0397 25.9084 26.1383 25.8242 26.2214C25.74 26.3045 25.6398 26.3705 25.5293 26.4156C25.4187 26.4606 25.3002 26.4838 25.1804 26.4838H24.6789V20.0374L25.1804 20.0348ZM9.95506 15.0362V13.1071H23.2664V15.0362H9.95506ZM9.95506 31.054H13.3966V46.6345H9.95506V31.054Z" fill="#211E1E"/>
</svg>
