<svg width="50" height="50" viewBox="0 0 50 50" fill="none" xmlns="http://www.w3.org/2000/svg">
<path d="M1.15387 23.9807H48.8462C49.4135 23.9807 49.8718 24.4391 49.8718 25.0064C49.8718 25.5737 49.4135 26.032 48.8462 26.032H3.63144L9.8558 32.2564C10.2564 32.657 10.2564 33.3077 9.8558 33.7083C9.45516 34.1089 8.80452 34.1089 8.40387 33.7083L0.426311 25.7307C0.131439 25.4359 0.0449028 24.9968 0.205158 24.6122C0.365414 24.2307 0.740414 23.9807 1.15387 23.9807Z" fill="black"/>
<path d="M9.14105 15.9936C9.40387 15.9936 9.66669 16.0929 9.86541 16.2948C10.2661 16.6955 10.2661 17.3461 9.86541 17.7468L1.87823 25.7339C1.47759 26.1346 0.826952 26.1346 0.426311 25.7339C0.0256701 25.3333 0.0256701 24.6827 0.426311 24.282L8.41349 16.2948C8.61541 16.0929 8.87823 15.9936 9.14105 15.9936Z" fill="black"/>
</svg>
