<svg width="45" height="48" viewBox="0 0 45 48" fill="none" xmlns="http://www.w3.org/2000/svg">
<path d="M37.5784 0C35.5895 0.0176532 33.6893 0.804903 32.2957 2.18852C30.9021 3.57215 30.1292 5.43882 30.1471 7.378V11.2869H12.5097V7.378C12.4985 6.67511 12.6308 5.97709 12.8989 5.32453C13.167 4.67198 13.5656 4.07796 14.0714 3.57703C14.5773 3.0761 15.1803 2.67828 15.8453 2.40674C16.5103 2.1352 17.2241 1.99535 17.9451 1.99535C18.6661 1.99535 19.3799 2.1352 20.0449 2.40674C20.7099 2.67828 21.3129 3.0761 21.8188 3.57703C22.3246 4.07796 22.7232 4.67198 22.9913 5.32453C23.2594 5.97709 23.3917 6.67511 23.3805 7.378C23.3805 7.63615 23.4856 7.88372 23.6729 8.06626C23.8601 8.2488 24.114 8.35138 24.3788 8.35138C24.6435 8.35138 24.8975 8.2488 25.0847 8.06626C25.2719 7.88372 25.3771 7.63615 25.3771 7.378C25.3902 6.41829 25.2077 5.46561 24.84 4.57525C24.4724 3.68489 23.9271 2.87461 23.2357 2.19143C22.5442 1.50825 21.7205 0.96579 20.8123 0.595543C19.9041 0.225296 18.9295 0.0346488 17.9451 0.0346488C16.9607 0.0346488 15.9861 0.225296 15.0779 0.595543C14.1697 0.96579 13.346 1.50825 12.6545 2.19143C11.9631 2.87461 11.4178 3.68489 11.0502 4.57525C10.6825 5.46561 10.5 6.41829 10.5131 7.378V32.4308C10.5056 32.5639 10.5258 32.6972 10.5724 32.8226C10.619 32.948 10.691 33.0629 10.7842 33.1605C10.8774 33.2581 10.9899 33.3363 11.1148 33.3906C11.2398 33.4448 11.3747 33.4739 11.5114 33.4761C11.6439 33.4756 11.775 33.4495 11.8971 33.3993C12.0192 33.3491 12.1299 33.2757 12.2228 33.1835C12.3156 33.0913 12.3888 32.9821 12.438 32.8622C12.4873 32.7422 12.5117 32.6139 12.5097 32.4848V30.007H30.2025V32.4848C30.2025 32.7429 30.3077 32.9905 30.4949 33.173C30.6821 33.3556 30.9361 33.4581 31.2008 33.4581C31.4656 33.4581 31.7195 33.3556 31.9067 33.173C32.094 32.9905 32.1991 32.7429 32.1991 32.4848V7.378C32.1991 5.97982 32.7688 4.63891 33.7828 3.65025C34.7968 2.66159 36.1721 2.10616 37.6061 2.10616C39.0402 2.10616 40.4155 2.66159 41.4295 3.65025C42.4435 4.63891 43.0131 5.97982 43.0131 7.378C43.0131 7.63615 43.1183 7.88372 43.3055 8.06626C43.4928 8.2488 43.7467 8.35138 44.0115 8.35138C44.2762 8.35138 44.5302 8.2488 44.7174 8.06626C44.9046 7.88372 45.0098 7.63615 45.0098 7.378C45.0273 5.43892 44.2544 3.57242 42.8608 2.18888C41.4673 0.805331 39.5672 0.0179931 37.5784 0ZM30.2025 27.915H12.5097V24.3918H30.2025V27.915ZM30.2025 22.4091H12.5097V18.886H30.2025V22.4091ZM30.2025 16.7927H12.5097V13.2696H30.2025V16.7927Z" fill="black"/>
<path d="M42.5146 37.3295C42.4657 37.2078 42.3912 37.0974 42.296 37.0054C42.2008 36.9133 42.0869 36.8416 41.9617 36.7949C41.8365 36.7482 41.7026 36.7275 41.5687 36.7341C41.4348 36.7407 41.3038 36.7744 41.184 36.8331C36.1924 38.9804 33.7527 37.9351 31.1454 36.8331C28.4828 35.7325 25.7661 34.5765 20.9407 36.8331C15.9491 38.9804 13.5081 37.9351 10.9021 36.8331C8.23953 35.7325 5.46614 34.5765 0.642034 36.8331C0.400767 36.9489 0.214573 37.1509 0.122209 37.3971C0.029846 37.6433 0.0384292 37.9148 0.146172 38.155C0.25567 38.3923 0.457195 38.5777 0.706605 38.6705C0.956015 38.7633 1.23298 38.7559 1.47682 38.65C2.78979 37.9259 4.2745 37.5499 5.78295 37.5596C7.29141 37.5693 8.7709 37.9643 10.074 38.7053C11.8194 39.5482 13.7294 40.0177 15.6761 40.0824C17.7719 40.0234 19.8316 39.5354 21.7214 38.65C23.0342 37.926 24.5187 37.55 26.0269 37.5597C27.5351 37.5694 29.0144 37.9644 30.3172 38.7053C32.0627 39.5482 33.9727 40.0177 35.9194 40.0824C38.0152 40.0234 40.0749 39.5354 41.9647 38.65C42.2116 38.5395 42.4059 38.3414 42.5081 38.096C42.6103 37.8506 42.6126 37.5765 42.5146 37.3295Z" fill="black"/>
<path d="M42.4594 44.9285C42.4103 44.8069 42.3357 44.6966 42.2405 44.6047C42.1452 44.5128 42.0313 44.4413 41.9061 44.3947C41.7809 44.3481 41.6471 44.3275 41.5132 44.3342C41.3794 44.3409 41.2485 44.3747 41.1288 44.4334C36.1372 46.5808 33.6974 45.5341 31.0902 44.4334C28.4276 43.3315 25.7109 42.1756 20.8855 44.4334C15.8939 46.5808 13.4528 45.5341 10.8469 44.4334C8.18429 43.3315 5.46628 42.1756 0.585473 44.4334C0.343832 44.5485 0.157086 44.7501 0.0642038 44.9961C-0.0286783 45.2422 -0.0205209 45.5137 0.086973 45.754C0.212335 45.9909 0.424276 46.1733 0.68091 46.2652C0.937544 46.3571 1.2202 46.3518 1.47301 46.2503C2.7859 45.5261 4.27054 45.1499 5.77896 45.1594C7.28739 45.1689 8.76693 45.5637 10.0701 46.3043C11.8156 47.1472 13.7256 47.6167 15.6723 47.6814C17.768 47.6223 19.8275 47.1347 21.7176 46.2503C23.0303 45.526 24.5147 45.1499 26.0229 45.1594C27.5311 45.1689 29.0105 45.5636 30.3134 46.3043C32.0589 47.1472 33.9689 47.6167 35.9156 47.6814C38.0113 47.6223 40.0708 47.1347 41.9609 46.2503C42.0849 46.198 42.1967 46.1217 42.2895 46.026C42.3823 45.9303 42.4542 45.8172 42.5008 45.6936C42.5474 45.57 42.5678 45.4384 42.5607 45.3069C42.5536 45.1754 42.5191 45.0466 42.4594 44.9285Z" fill="black"/>
</svg>
