<svg width="63" height="63" viewBox="0 0 63 63" fill="none" xmlns="http://www.w3.org/2000/svg">
<g clip-path="url(#clip0_89_1699)">
<path d="M22.8631 23.4831L15.997 20.6259C15.2833 20.329 14.4966 20.3278 13.782 20.6224C13.0673 20.9172 12.5102 21.4725 12.2133 22.1862L10.6661 27.4441L21.7835 32.0704L24.3793 27.3583L24.4232 27.2673C25.0364 25.7937 24.3365 24.0962 22.8631 23.4831ZM22.7271 26.5148L20.9614 29.7202L12.9125 26.3706L13.942 22.8591C14.0522 22.6214 14.2449 22.4368 14.4885 22.3364C14.7453 22.2305 15.0281 22.231 15.2845 22.3378L22.1507 25.1949C22.4071 25.3016 22.6068 25.5018 22.7126 25.7587C22.8133 26.0022 22.8179 26.2691 22.7271 26.5148Z" fill="#1C2D37"/>
<path d="M7.3225 36.1099L5.88617 39.5617C5.45809 40.5904 5.45612 41.7242 5.881 42.7545C6.30564 43.7845 7.10606 44.5877 8.13485 45.0158L11.1018 46.2503C11.6184 46.4654 12.1612 46.5728 12.7043 46.5728C13.2429 46.5728 13.7816 46.4671 14.2945 46.2556C15.3245 45.8308 16.1277 45.0304 16.5557 44.0017L17.9921 40.5498L7.3225 36.1099ZM14.844 43.2894C14.6061 43.861 14.16 44.3058 13.5877 44.5417C13.0153 44.7775 12.3854 44.7767 11.814 44.5387L8.84692 43.304C8.27537 43.0662 7.83068 42.6202 7.5948 42.0479C7.35892 41.4753 7.3599 40.8454 7.59788 40.2741L8.32201 38.5339L15.5681 41.5492L14.844 43.2894Z" fill="#1C2D37"/>
<path d="M29.806 18.6509C29.7352 18.4791 29.6567 18.3122 29.5743 18.1477C29.5043 18.0082 29.4311 17.871 29.3531 17.737C28.5441 16.3453 27.3109 15.2599 25.7991 14.6308L20.2075 12.3041C20.0906 12.2554 19.9729 12.2101 19.8545 12.1676C19.8403 12.1626 19.8263 12.1585 19.8122 12.1535C19.7065 12.1163 19.6004 12.0809 19.4937 12.0487C19.4935 12.0485 19.4931 12.0485 19.4929 12.0484C17.8629 11.5552 16.1273 11.6369 14.5316 12.2948C12.9388 12.9515 11.6519 14.1139 10.8428 15.6088C10.8411 15.612 10.8392 15.6149 10.8375 15.6181C10.7864 15.7128 10.738 15.8092 10.691 15.9063C10.6828 15.9232 10.6737 15.9394 10.6656 15.9564C10.6117 16.0697 10.5602 16.1846 10.5115 16.3015L9.65896 18.3503L7.71555 25.2728L0.465879 42.6946C-0.152678 44.1811 -0.155385 45.8196 0.458373 47.3082C1.07213 48.7967 2.22877 49.9573 3.71542 50.576L10.2721 53.3044C11.0266 53.6183 11.8094 53.7671 12.5801 53.7671C14.9431 53.767 17.1904 52.3689 18.1534 50.0549L25.4032 32.6331L28.9443 26.3754L29.7968 24.3268C30.5577 22.4978 30.5611 20.4822 29.806 18.6509ZM12.709 16.0973C12.7421 16.0467 12.7761 15.997 12.8108 15.9479C12.8179 15.9378 12.825 15.9276 12.8322 15.9175C14.0666 14.1892 16.2025 13.3092 18.2961 13.668C18.3039 13.6693 18.3117 13.6707 18.3195 13.672C18.383 13.6831 18.4466 13.6954 18.5101 13.7088C18.5122 13.7093 18.5143 13.7098 18.5164 13.7102C17.2651 15.626 14.9406 16.5853 12.7025 16.1071C12.7049 16.104 12.707 16.1006 12.709 16.0973ZM27.2756 25.5596L23.7344 31.8171L16.4417 49.3424C16.0132 50.3719 15.2097 51.1728 14.179 51.5978C13.1483 52.0228 12.0136 52.0211 10.9843 51.5926L4.42762 48.8642C3.39833 48.4358 2.59742 47.6322 2.17229 46.6016C1.74741 45.5708 1.74926 44.4362 2.17746 43.4069L9.47045 25.8816L11.4139 18.9592L11.8903 17.8143C12.5403 17.9939 13.1989 18.0826 13.8508 18.0826C16.4618 18.0826 18.9571 16.6947 20.2968 14.3494L24.2863 16.0094C23.3872 19.2627 24.8212 22.7406 27.7519 24.4149L27.2756 25.5596ZM28.5142 21.5297C28.5135 21.5893 28.5119 21.6491 28.5095 21.7088C28.5085 21.7324 28.5078 21.756 28.5065 21.7795C28.5021 21.8608 28.4962 21.9421 28.4881 22.0233C28.4873 22.0312 28.4861 22.0391 28.4852 22.047C28.4776 22.1205 28.4683 22.1939 28.4576 22.2671C28.4539 22.2923 28.4498 22.3175 28.4458 22.3428C28.4365 22.401 28.4262 22.4589 28.4151 22.517C28.4102 22.5425 28.4055 22.5678 28.4001 22.5933C28.3971 22.6074 28.3936 22.6215 28.3905 22.6356C26.4745 21.3845 25.5163 19.0597 25.9933 16.8219C26.0006 16.8266 26.0082 16.831 26.0153 16.8359C26.1172 16.9027 26.2165 16.9729 26.3132 17.0461C26.3333 17.0612 26.3526 17.077 26.3724 17.0925C26.4566 17.1579 26.5386 17.2256 26.6188 17.2956C26.6357 17.3105 26.6531 17.3248 26.6699 17.3399C26.7596 17.4205 26.8465 17.5043 26.9307 17.5906C26.95 17.6104 26.9687 17.6307 26.9878 17.6507C27.062 17.7291 27.1341 17.8095 27.2037 17.8922C27.2154 17.9062 27.2278 17.9196 27.2394 17.9336C27.3164 18.027 27.3898 18.1236 27.4608 18.2223C27.4777 18.2459 27.4942 18.2699 27.511 18.2939C27.5758 18.3873 27.6387 18.4825 27.698 18.5801C27.7039 18.5897 27.7102 18.5992 27.7162 18.6089C27.7795 18.7145 27.8384 18.8233 27.895 18.9336C27.9087 18.9602 27.9219 18.987 27.9351 19.0139C27.9906 19.1264 28.0439 19.2405 28.0922 19.3576C28.1242 19.4354 28.1539 19.5137 28.1823 19.5922C28.1908 19.6158 28.1989 19.6397 28.2072 19.6634C28.227 19.7205 28.2458 19.7777 28.2636 19.8351C28.2714 19.8602 28.2794 19.8853 28.2868 19.9104C28.3065 19.9768 28.3248 20.0436 28.3419 20.1104C28.3453 20.1239 28.3492 20.1371 28.3525 20.1506C28.3724 20.2307 28.39 20.311 28.4064 20.3915C28.4107 20.4129 28.4143 20.4343 28.4183 20.4557C28.4298 20.5163 28.4403 20.5769 28.4497 20.6378C28.4536 20.6637 28.4574 20.6895 28.4611 20.7153C28.4699 20.7775 28.4775 20.84 28.484 20.9023C28.4861 20.9222 28.4887 20.9419 28.4905 20.9618C28.4982 21.0431 28.5042 21.1245 28.5083 21.2059C28.5091 21.2228 28.5092 21.2396 28.51 21.2565C28.5126 21.3217 28.5142 21.3871 28.5144 21.4523C28.5147 21.4777 28.5144 21.5037 28.5142 21.5297Z" fill="#1C2D37"/>
<path d="M55.4932 23.4831L48.627 20.6259C47.9132 20.329 47.1267 20.3278 46.4121 20.6224C45.6974 20.9172 45.1402 21.4725 44.8433 22.1862L43.2961 27.4441L54.4135 32.0704L57.0093 27.3583L57.0533 27.2673C57.6664 25.7937 56.9665 24.0962 55.4932 23.4831ZM55.3572 26.5148L53.5915 29.7202L45.5426 26.3706L46.572 22.8591C46.6823 22.6214 46.875 22.4368 47.1186 22.3364C47.3754 22.2305 47.6582 22.231 47.9146 22.3378L54.7807 25.1949C55.0372 25.3016 55.2369 25.5018 55.3427 25.7587C55.4433 26.0022 55.448 26.2691 55.3572 26.5148Z" fill="#1C2D37"/>
<path d="M39.9526 36.1099L38.5162 39.5617C38.0882 40.5904 38.0862 41.7242 38.5111 42.7545C38.9357 43.7845 39.7361 44.5877 40.7649 45.0158L43.7318 46.2503C44.2485 46.4654 44.7913 46.5728 45.3344 46.5728C45.873 46.5728 46.4117 46.4671 46.9245 46.2556C47.9545 45.8308 48.7578 45.0304 49.1858 44.0017L50.6222 40.5498L39.9526 36.1099ZM47.4741 43.2894C47.2362 43.861 46.79 44.3058 46.2177 44.5417C45.6453 44.7775 45.0156 44.7767 44.444 44.5387L41.477 43.304C40.9054 43.0662 40.4607 42.6202 40.2249 42.0479C39.989 41.4753 39.99 40.8454 40.2279 40.2741L40.9521 38.5339L48.1982 41.5492L47.4741 43.2894Z" fill="#1C2D37"/>
<path d="M62.4361 18.651C62.3652 18.4792 62.2867 18.3124 62.2044 18.1479C62.1344 18.0083 62.0612 17.8711 61.9832 17.7371C61.1741 16.3455 59.941 15.2601 58.4292 14.6309L52.8376 12.3041C52.7207 12.2554 52.6029 12.2101 52.4846 12.1677C52.4704 12.1626 52.4563 12.1586 52.4422 12.1535C52.3365 12.1164 52.2306 12.0809 52.1239 12.0487C52.1234 12.0486 52.1231 12.0484 52.1226 12.0483C50.4927 11.5553 48.7572 11.637 47.1618 12.2948C45.569 12.9515 44.282 14.1139 43.473 15.6088C43.4713 15.612 43.4694 15.615 43.4677 15.6182C43.4166 15.7128 43.3681 15.8092 43.3211 15.9063C43.313 15.9232 43.3039 15.9394 43.2958 15.9564C43.2419 16.0697 43.1903 16.1847 43.1417 16.3016L42.2891 18.3503L40.3456 25.2728L33.0959 42.6945C32.4774 44.181 32.4747 45.8195 33.0884 47.3081C33.7022 48.7966 34.8588 49.9572 36.3455 50.5759L42.9022 53.3043C43.6567 53.6182 44.4395 53.767 45.2102 53.767C47.5731 53.7669 49.8205 52.3688 50.7834 50.0548L58.0332 32.633L61.5744 26.3754L62.4269 24.3268C63.1878 22.4979 63.1911 20.4823 62.4361 18.651ZM45.3391 16.0974C45.3722 16.0468 45.4062 15.9971 45.4409 15.948C45.448 15.9379 45.455 15.9277 45.4623 15.9176C46.6967 14.1893 48.8325 13.3093 50.9262 13.6681C50.9339 13.6695 50.9418 13.6708 50.9496 13.6722C51.013 13.6832 51.0767 13.6955 51.1402 13.709C51.1422 13.7094 51.1443 13.7099 51.1464 13.7103C49.8952 15.6261 47.5707 16.5854 45.3326 16.1073C45.3349 16.1042 45.337 16.1007 45.3391 16.0974ZM59.9056 25.5598L56.3645 31.8174L49.0717 49.3426C48.6433 50.372 47.8398 51.1729 46.809 51.5979C45.7784 52.0229 44.6436 52.0212 43.6144 51.5928L37.0577 48.8643C36.0284 48.436 35.2275 47.6324 34.8024 46.6017C34.3775 45.571 34.3793 44.4363 34.8075 43.4071L42.1005 25.8817L44.0439 18.9594L44.5204 17.8144C45.1704 17.9941 45.829 18.0828 46.4809 18.0828C49.0919 18.0828 51.5872 16.6948 52.9269 14.3495L56.9163 16.0096C56.0172 19.2628 57.4512 22.7407 60.382 24.415L59.9056 25.5598ZM61.1439 21.5299C61.1432 21.5896 61.1416 21.6494 61.1392 21.7091C61.1382 21.7327 61.1375 21.7562 61.1362 21.7797C61.1318 21.8611 61.1259 21.9424 61.1178 22.0236C61.117 22.0315 61.1158 22.0394 61.1149 22.0472C61.1073 22.1208 61.098 22.1941 61.0873 22.2674C61.0836 22.2926 61.0795 22.3178 61.0755 22.343C61.0662 22.4012 61.0559 22.4592 61.0448 22.5173C61.0399 22.5427 61.0352 22.5681 61.0298 22.5936C61.0268 22.6077 61.0233 22.6217 61.0202 22.6359C59.1044 21.3846 58.1461 19.06 58.6231 16.8222C58.6304 16.8268 58.638 16.8313 58.6452 16.8362C58.747 16.903 58.8463 16.9731 58.943 17.0464C58.9631 17.0615 58.9824 17.0772 59.0022 17.0927C59.0864 17.1582 59.1685 17.2259 59.2486 17.2959C59.2656 17.3108 59.2829 17.3251 59.2998 17.3402C59.3895 17.4208 59.4763 17.5046 59.5605 17.5908C59.5798 17.6107 59.5985 17.6308 59.6176 17.651C59.6918 17.7294 59.7639 17.8097 59.8335 17.8924C59.8452 17.9065 59.8577 17.9199 59.8692 17.934C59.9462 18.0274 60.0196 18.124 60.0906 18.2226C60.1076 18.2462 60.1241 18.2702 60.1408 18.2942C60.2056 18.3876 60.2685 18.4828 60.3278 18.5804C60.3337 18.59 60.34 18.5995 60.346 18.6092C60.4093 18.7147 60.4682 18.8235 60.5248 18.9339C60.5383 18.9605 60.5518 18.9873 60.5649 19.0141C60.6204 19.1267 60.6737 19.2408 60.7221 19.3579C60.7541 19.4357 60.7837 19.5139 60.8121 19.5924C60.8206 19.6161 60.8287 19.6399 60.837 19.6637C60.8568 19.7208 60.8756 19.778 60.8935 19.8353C60.9012 19.8604 60.9092 19.8855 60.9166 19.9106C60.9363 19.9771 60.9546 20.0439 60.9717 20.1107C60.9752 20.124 60.979 20.1374 60.9823 20.1507C61.0022 20.2308 61.0198 20.3112 61.0362 20.3916C61.0405 20.413 61.0441 20.4345 61.0481 20.4559C61.0596 20.5164 61.0702 20.5771 61.0795 20.638C61.0834 20.6638 61.0873 20.6897 61.091 20.7155C61.0997 20.7776 61.1073 20.8401 61.1138 20.9024C61.1159 20.9223 61.1185 20.942 61.1204 20.962C61.128 21.0433 61.1339 21.1246 61.1381 21.2061C61.1389 21.2229 61.1391 21.2398 61.1398 21.2567C61.1424 21.3219 61.144 21.3872 61.1442 21.4524C61.1444 21.478 61.1441 21.504 61.1439 21.5299Z" fill="#1C2D37"/>
<path d="M41.2259 3.67573L40.5564 5.40454L42.2852 6.074L42.9547 4.34519L41.2259 3.67573Z" fill="#1C2D37"/>
<path d="M42.5646 0.217729L41.8951 1.94653L43.6239 2.61599L44.2934 0.88719L42.5646 0.217729Z" fill="#1C2D37"/>
<path d="M19.2758 60.3847L18.6063 62.1135L20.3351 62.783L21.0046 61.0542L19.2758 60.3847Z" fill="#1C2D37"/>
<path d="M20.6145 56.9255L19.9451 58.6543L21.6739 59.3238L22.3433 57.595L20.6145 56.9255Z" fill="#1C2D37"/>
<path d="M39.891 7.12665L21.2842 55.1951L23.0133 55.8644L41.6201 7.79597L39.891 7.12665Z" fill="#1C2D37"/>
<path d="M4.06672 44.8109L3.35443 46.5225L5.75053 47.5196L6.46282 45.8081L4.06672 44.8109Z" fill="#1C2D37"/>
<path d="M11.8308 48.0445L11.1185 49.7563L13.5151 50.7536L14.2274 49.0417L11.8308 48.0445Z" fill="#1C2D37"/>
<path d="M36.6944 44.8114L35.9821 46.5229L38.3782 47.5201L39.0905 45.8085L36.6944 44.8114Z" fill="#1C2D37"/>
<path d="M44.4617 48.0445L43.7494 49.7563L46.146 50.7536L46.8583 49.0417L44.4617 48.0445Z" fill="#1C2D37"/>
</g>
<defs>
<clipPath id="clip0_89_1699">
<rect width="63" height="63" fill="white"/>
</clipPath>
</defs>
</svg>
