<svg width="21" height="21" viewBox="0 0 21 21" fill="none" xmlns="http://www.w3.org/2000/svg">
<path d="M1.75 19.25C1.75 15.384 4.884 12.25 8.75 12.25C12.616 12.25 15.75 15.384 15.75 19.25H14C14 16.3505 11.6495 14 8.75 14C5.8505 14 3.5 16.3505 3.5 19.25H1.75ZM8.75 11.375C5.84937 11.375 3.5 9.02563 3.5 6.125C3.5 3.22438 5.84937 0.875 8.75 0.875C11.6506 0.875 14 3.22438 14 6.125C14 9.02563 11.6506 11.375 8.75 11.375ZM8.75 9.625C10.6838 9.625 12.25 8.05875 12.25 6.125C12.25 4.19125 10.6838 2.625 8.75 2.625C6.81625 2.625 5.25 4.19125 5.25 6.125C5.25 8.05875 6.81625 9.625 8.75 9.625ZM15.9982 12.865C18.4314 13.9616 20.125 16.408 20.125 19.25H18.375C18.375 17.1185 17.1048 15.2837 15.2799 14.4612L15.9982 12.865ZM15.3967 2.98656C17.1451 3.7074 18.375 5.42816 18.375 7.4375C18.375 9.94893 16.4537 12.0096 14 12.2304V10.469C15.4846 10.2569 16.625 8.981 16.625 7.4375C16.625 6.22943 15.9264 5.18528 14.9109 4.68681L15.3967 2.98656Z" fill="black"/>
</svg>
