<svg width="44" height="50" viewBox="0 0 44 50" fill="none" xmlns="http://www.w3.org/2000/svg">
<rect x="35.4697" width="11.3401" height="41.2632" rx="5.67003" transform="rotate(45.5768 35.4697 0)" fill="#D6A643" fill-opacity="0.12"/>
<g clip-path="url(#clip0_2040_74)">
<path d="M24.0992 48.6037L38.2476 27.3213C38.5204 26.9109 38.5219 26.3521 38.2514 25.9401L24.2219 4.56103C23.8792 4.03884 23.2196 3.92338 22.7485 4.3033C22.2774 4.68322 22.1734 5.41456 22.516 5.93666L36.0913 26.6232L22.4011 47.2164C22.2629 47.4241 22.196 47.6657 22.1954 47.9055C22.1944 48.2655 22.3428 48.6213 22.6245 48.8513C23.0933 49.2345 23.7536 49.1236 24.0992 48.6037Z" fill="#D6A643"/>
<path d="M22.1741 42.9449C22.1759 42.2993 21.7052 41.7741 21.1227 41.7721L4.33391 41.7146L4.35997 32.3612L13.5243 32.3925C16.4325 32.4025 18.8057 29.7878 18.8147 26.5641C18.8237 23.3405 16.465 20.7096 13.5569 20.6996L4.39247 20.6682L4.41852 11.3147L21.2073 11.3722C21.7898 11.3741 22.2635 10.8522 22.2653 10.2066C22.2671 9.56092 21.7963 9.03574 21.2138 9.03374L3.37022 8.97266C2.7877 8.97066 2.31402 9.49261 2.31222 10.1382L2.27964 21.8302C2.27793 22.4451 2.70507 22.9497 3.249 22.9982C3.27365 23.0011 3.30061 23.0029 3.33113 23.003L13.5503 23.038C15.2953 23.044 16.7106 24.6225 16.7052 26.5569C16.6998 28.4913 15.2757 30.0601 13.5308 30.0541L3.31158 30.0191C3.28122 30.019 3.25473 30.0207 3.23038 30.0234C2.68579 30.0676 2.2553 30.5695 2.25358 31.1847L2.22101 42.8767C2.21921 43.5224 2.68998 44.0475 3.2725 44.0495L21.1161 44.1106C21.6987 44.1125 22.1723 43.5906 22.1741 42.9449Z" fill="#D6A643"/>
</g>
<defs>
<clipPath id="clip0_2040_74">
<rect width="45" height="40.5947" fill="white" transform="matrix(-0.00278597 0.999996 -0.999994 -0.00342343 40.7199 4.13892)"/>
</clipPath>
</defs>
</svg>
