<svg width="69" height="76" viewBox="0 0 69 76" fill="none" xmlns="http://www.w3.org/2000/svg">
<g clip-path="url(#clip0_27_9)">
<path d="M67.8596 30.8845L35.3611 4.50763C34.7344 3.99908 33.883 3.99908 33.2566 4.50763L0.757822 30.8845C-0.0359737 31.5289 -0.208445 32.7645 0.372842 33.6444C0.954129 34.5244 2.0689 34.7152 2.86256 34.0712L34.3087 8.54825L65.7548 34.071C66.0719 34.3286 66.4404 34.4525 66.8057 34.4525C67.3542 34.4525 67.8954 34.1727 68.2444 33.6443C68.8258 32.7645 68.6533 31.5289 67.8596 30.8845Z" fill="black"/>
<path d="M59.2481 34.5181C58.2645 34.5181 57.4668 35.4022 57.4668 36.4927V67.9242H43.2162V50.7669C43.2162 45.3222 39.2202 40.8929 34.3088 40.8929C29.3974 40.8929 25.4014 45.3225 25.4014 50.7669V67.9244H11.1507V36.4929C11.1507 35.4023 10.353 34.5182 9.3693 34.5182C8.38563 34.5182 7.58795 35.4023 7.58795 36.4929V69.8992C7.58795 70.9897 8.38563 71.8738 9.3693 71.8738H27.1827C28.1195 71.8738 28.8861 71.0715 28.9571 70.053C28.9614 70.0068 28.9641 69.9563 28.9641 69.8992V50.7671C28.9641 47.5001 31.3617 44.8423 34.3088 44.8423C37.2559 44.8423 39.6535 47.5003 39.6535 50.7671V69.8992C39.6535 69.956 39.6562 70.0056 39.6605 70.0512C39.7307 71.0705 40.4975 71.8738 41.4349 71.8738H59.2483C60.2321 71.8738 61.0296 70.9897 61.0296 69.8992V36.4929C61.0295 35.4022 60.232 34.5181 59.2481 34.5181Z" fill="black"/>
</g>
<defs>
<clipPath id="clip0_27_9">
<rect width="68.5599" height="76" fill="white" transform="translate(0.0286865)"/>
</clipPath>
</defs>
</svg>
