<svg width="38" height="38" viewBox="0 0 38 38" fill="none" xmlns="http://www.w3.org/2000/svg">
<path d="M31.6666 31.6665C31.6666 32.541 30.9578 33.2499 30.0833 33.2499H7.91665C7.0422 33.2499 6.33331 32.541 6.33331 31.6665V17.4165H1.58331L17.9349 2.55141C18.5388 2.00239 19.4612 2.00239 20.0651 2.55141L36.4166 17.4165H31.6666V31.6665ZM28.5 30.0832V14.4992L19 5.8628L9.49998 14.4992V30.0832H28.5ZM19 26.9165L13.6819 21.5984C12.2907 20.2072 12.2907 17.9515 13.6819 16.5603C15.0732 15.1691 17.3288 15.1691 18.72 16.5603L19 16.8402L19.2799 16.5603C20.6712 15.1691 22.9268 15.1691 24.3181 16.5603C25.7092 17.9515 25.7092 20.2072 24.3181 21.5984L19 26.9165Z" fill="white"/>
</svg>
