<svg width="12" height="9" viewBox="0 0 12 9" fill="none" xmlns="http://www.w3.org/2000/svg">
<path d="M10.875 0C11.4844 0 12 0.515625 12 1.125V7.875C12 8.50781 11.4844 9 10.875 9H1.125C0.492188 9 0 8.50781 0 7.875V1.125C0 0.515625 0.492188 0 1.125 0H10.875ZM10.875 1.125H1.125V2.08594C1.64062 2.53125 2.48438 3.1875 4.26562 4.59375C4.66406 4.89844 5.4375 5.64844 6 5.625C6.53906 5.64844 7.3125 4.89844 7.71094 4.59375C9.49219 3.1875 10.3359 2.53125 10.875 2.08594V1.125ZM1.125 7.875H10.875V3.53906C10.3359 3.96094 9.5625 4.57031 8.41406 5.48438C7.875 5.88281 6.98438 6.77344 6 6.75C4.99219 6.77344 4.07812 5.88281 3.5625 5.48438C2.41406 4.57031 1.64062 3.96094 1.125 3.53906V7.875Z" fill="#1C2D37"/>
</svg>
