<svg width="42" height="42" viewBox="0 0 42 42" fill="none" xmlns="http://www.w3.org/2000/svg">
<g filter="url(#filter0_d_101_1127)">
<circle cx="21" cy="21" r="13" fill="white" fill-opacity="0.13" shape-rendering="crispEdges"/>
</g>
<g clip-path="url(#clip0_101_1127)">
<path d="M21.265 31.53C26.9342 31.53 31.53 26.9342 31.53 21.265C31.53 15.5958 26.9342 11 21.265 11C15.5958 11 11 15.5958 11 21.265C11 26.9342 15.5958 31.53 21.265 31.53Z" fill="white"/>
<path d="M20.8188 21.2657H31.5301C31.5301 20.3392 31.4066 19.4417 31.1765 18.5879H20.8188V21.2657Z" fill="#D80027"/>
<path d="M20.8186 15.9093H30.0233C29.3949 14.8839 28.5915 13.9776 27.6547 13.2314H20.8186V15.9093Z" fill="#D80027"/>
<path d="M21.2648 31.5294C23.6806 31.5294 25.9011 30.6944 27.6546 29.2979H14.875C16.6285 30.6944 18.849 31.5294 21.2648 31.5294Z" fill="#D80027"/>
<path d="M12.5065 26.6212H30.0233C30.5277 25.798 30.919 24.8982 31.1763 23.9434H11.3535C11.6108 24.8982 12.0021 25.798 12.5065 26.6212Z" fill="#D80027"/>
<path d="M15.7549 12.603H16.6904L15.8203 13.2352L16.1526 14.258L15.2826 13.6259L14.4125 14.258L14.6996 13.3744C13.9335 14.0125 13.262 14.7602 12.7086 15.5933H13.0084L12.4545 15.9956C12.3682 16.1396 12.2855 16.2858 12.2061 16.4342L12.4706 17.2483L11.9772 16.8897C11.8545 17.1496 11.7423 17.4153 11.6415 17.6866L11.9329 18.5835H13.0084L12.1383 19.2156L12.4706 20.2385L11.6005 19.6064L11.0794 19.985C11.0272 20.4044 11 20.8315 11 21.265H21.265C21.265 15.5958 21.265 14.9275 21.265 11C19.2372 11 17.3469 11.5882 15.7549 12.603ZM16.1526 20.2385L15.2826 19.6064L14.4125 20.2385L14.7448 19.2156L13.8747 18.5835H14.9502L15.2826 17.5607L15.6149 18.5835H16.6904L15.8203 19.2156L16.1526 20.2385ZM15.8203 16.2254L16.1526 17.2483L15.2826 16.6161L14.4125 17.2483L14.7448 16.2254L13.8747 15.5933H14.9502L15.2826 14.5704L15.6149 15.5933H16.6904L15.8203 16.2254ZM19.8346 20.2385L18.9646 19.6064L18.0945 20.2385L18.4268 19.2156L17.5567 18.5835H18.6322L18.9646 17.5607L19.2969 18.5835H20.3724L19.5023 19.2156L19.8346 20.2385ZM19.5023 16.2254L19.8346 17.2483L18.9646 16.6161L18.0945 17.2483L18.4268 16.2254L17.5567 15.5933H18.6322L18.9646 14.5704L19.2969 15.5933H20.3724L19.5023 16.2254ZM19.5023 13.2352L19.8346 14.258L18.9646 13.6259L18.0945 14.258L18.4268 13.2352L17.5567 12.603H18.6322L18.9646 11.5802L19.2969 12.603H20.3724L19.5023 13.2352Z" fill="#19235A"/>
</g>
<defs>
<filter id="filter0_d_101_1127" x="0" y="0" width="42" height="42" filterUnits="userSpaceOnUse" color-interpolation-filters="sRGB">
<feFlood flood-opacity="0" result="BackgroundImageFix"/>
<feColorMatrix in="SourceAlpha" type="matrix" values="0 0 0 0 0 0 0 0 0 0 0 0 0 0 0 0 0 0 127 0" result="hardAlpha"/>
<feOffset/>
<feGaussianBlur stdDeviation="4"/>
<feComposite in2="hardAlpha" operator="out"/>
<feColorMatrix type="matrix" values="0 0 0 0 0 0 0 0 0 0 0 0 0 0 0 0 0 0 0.12 0"/>
<feBlend mode="normal" in2="BackgroundImageFix" result="effect1_dropShadow_101_1127"/>
<feBlend mode="normal" in="SourceGraphic" in2="effect1_dropShadow_101_1127" result="shape"/>
</filter>
<clipPath id="clip0_101_1127">
<rect width="20.53" height="20.53" fill="white" transform="translate(11 11)"/>
</clipPath>
</defs>
</svg>
