<svg width="24" height="24" viewBox="0 0 24 24" fill="none" xmlns="http://www.w3.org/2000/svg">
<g clip-path="url(#clip0_12_66)">
<path d="M23.8414 11.6154L18.387 6.16088C18.191 5.93209 17.8467 5.90542 17.6179 6.1014C17.3891 6.29733 17.3624 6.64167 17.5584 6.87046C17.5767 6.89179 17.5966 6.91171 17.6179 6.92995L22.1396 11.4572H0.545428C0.244215 11.4572 0 11.7014 0 12.0026C0 12.3039 0.244215 12.5481 0.545428 12.5481H22.1396L17.6179 17.0698C17.3891 17.2657 17.3624 17.61 17.5584 17.8388C17.7544 18.0676 18.0987 18.0943 18.3275 17.8983C18.3488 17.88 18.3687 17.8602 18.387 17.8388L23.8414 12.3844C24.0529 12.1717 24.0529 11.8281 23.8414 11.6154Z" fill="black"/>
</g>
<defs>
<clipPath id="clip0_12_66">
<rect width="24" height="24" fill="white"/>
</clipPath>
</defs>
</svg>
