<svg width="35" height="19" viewBox="0 0 35 19" fill="none" xmlns="http://www.w3.org/2000/svg">
<path d="M34.0595 9.5C34.0595 14.4505 29.8636 18.5 24.6419 18.5C19.4203 18.5 15.2244 14.4505 15.2244 9.5C15.2244 4.54949 19.4203 0.5 24.6419 0.5C29.8636 0.5 34.0595 4.54949 34.0595 9.5Z" stroke="#BDC2C6"/>
<path d="M26.7978 10.5303C27.0907 10.2374 27.0907 9.76256 26.7978 9.46967L22.0249 4.6967C21.732 4.40381 21.2571 4.40381 20.9642 4.6967C20.6713 4.98959 20.6713 5.46447 20.9642 5.75736L25.2069 10L20.9642 14.2426C20.6713 14.5355 20.6713 15.0104 20.9642 15.3033C21.2571 15.5962 21.732 15.5962 22.0249 15.3033L26.7978 10.5303ZM0.343872 10.75L26.2675 10.75L26.2675 9.25L0.343872 9.25L0.343872 10.75Z" fill="#D6A643"/>
</svg>
