<svg width="25" height="27" viewBox="0 0 25 27" fill="none" xmlns="http://www.w3.org/2000/svg">
<g clip-path="url(#clip0_101_5314)">
<path d="M18.8012 12.9199C18.8012 12.0476 18.154 11.3379 17.3586 11.3379H15.9161C15.1206 11.3379 14.4735 12.0476 14.4735 12.9199V18.457H18.8012V12.9199Z" fill="black"/>
<path d="M2.93315 3.95508C2.93315 2.64674 3.90398 1.58203 5.09697 1.58203H6.53952C7.51439 1.58203 8.34059 2.2931 8.61025 3.267C7.01277 3.67316 5.81825 5.24549 5.81825 7.11914V7.91016H13.031V7.11914C13.031 5.18548 11.7588 3.5726 10.0843 3.23156C9.77338 1.39504 8.30251 0 6.53952 0H5.09697C3.10866 0 1.4906 1.77398 1.4906 3.95508V11.3379H2.93315V3.95508Z" fill="black"/>
<path d="M20.2437 20.0391H13.031V17.666H1.4906V20.0391C1.4906 22.1089 2.53164 23.9168 4.06949 24.8668L3.14443 25.8813L4.16441 27L5.55863 25.471C5.87604 25.5397 6.20398 25.5762 6.53952 25.5762H18.0799C18.4154 25.5762 18.7434 25.5397 19.0608 25.471L20.455 27L21.475 25.8813L20.55 24.8668C22.0878 23.9168 23.1288 22.1089 23.1288 20.0391V17.666H20.2437V20.0391Z" fill="black"/>
<path d="M23.177 12.9199H20.2438V16.084H23.177C23.9723 16.084 24.6195 15.3742 24.6195 14.502C24.6195 13.6297 23.9723 12.9199 23.177 12.9199Z" fill="black"/>
<path d="M13.031 12.9199H1.44255C0.647223 12.9199 0 13.6297 0 14.502C0 15.3742 0.647223 16.084 1.44255 16.084H13.031V12.9199Z" fill="black"/>
</g>
<defs>
<clipPath id="clip0_101_5314">
<rect width="24.6195" height="27" fill="white"/>
</clipPath>
</defs>
</svg>
