<svg width="34" height="34" viewBox="0 0 34 34" fill="none" xmlns="http://www.w3.org/2000/svg">
<g clip-path="url(#clip0_77_265)">
<path d="M14.4318 1.05234C14.3667 0.429572 13.804 -0.0197952 13.1869 0.0431049C12.9863 0.0640715 12.7885 0.0884382 12.5907 0.117338C11.9714 0.208005 11.5424 0.783172 11.6331 1.40311C11.7158 1.96694 12.1997 2.37267 12.7534 2.37267C12.8083 2.37267 12.8627 2.36871 12.9188 2.36077C13.0854 2.33641 13.2537 2.31544 13.4232 2.29787C14.0448 2.23214 14.497 1.67454 14.4318 1.05234Z" fill="black"/>
<path d="M12.9738 27.0396C12.8061 27.0158 12.6395 26.9892 12.474 26.9586C12.1657 26.8997 11.8637 26.9733 11.624 27.1388C11.5305 27.1139 11.4347 27.0963 11.3333 27.0963C10.7077 27.0963 10.2 27.604 10.2 28.2296V28.8462C10.2 29.4718 10.7077 29.9795 11.3333 29.9795C11.8201 29.9795 12.2315 29.6712 12.3918 29.2406C12.4797 29.2547 12.5675 29.2712 12.6559 29.2836C12.7097 29.2916 12.763 29.295 12.8163 29.295C13.371 29.295 13.8567 28.8864 13.9371 28.3203C14.0244 27.7009 13.5932 27.1275 12.9738 27.0396Z" fill="black"/>
<path d="M2.26667 14.6959C2.26667 14.5344 2.2695 14.3735 2.2763 14.2131C2.3001 13.5875 1.8122 13.0616 1.1866 13.0373C0.5474 13.0163 0.0351333 13.5014 0.0107667 14.127C0.00396666 14.3157 0 14.5055 0 14.6959V14.7248C0 15.3504 0.507733 15.844 1.13333 15.844C1.75893 15.844 2.26667 15.3221 2.26667 14.6959Z" fill="black"/>
<path d="M16.5229 27.0363C16.3557 27.0601 16.1874 27.0805 16.018 27.0981C15.3952 27.161 14.9425 27.718 15.0059 28.3402C15.0649 28.9239 15.5579 29.3585 16.1319 29.3585C16.1699 29.3585 16.209 29.3568 16.2481 29.3523C16.4475 29.3324 16.6464 29.3075 16.8436 29.2792C17.463 29.1908 17.8937 28.6167 17.8047 27.9968C17.7157 27.3769 17.1445 26.9507 16.5229 27.0363Z" fill="black"/>
<path d="M17.3724 0.198326C17.1757 0.162626 16.978 0.131459 16.7791 0.103693C16.1637 0.0186928 15.5868 0.450493 15.5007 1.07099C15.4151 1.69093 15.848 2.26326 16.468 2.34939C16.6368 2.37263 16.804 2.39983 16.9706 2.42986C17.0386 2.44176 17.106 2.44743 17.1723 2.44743C17.7107 2.44743 18.1878 2.06266 18.287 1.51469C18.398 0.898726 17.9883 0.30996 17.3724 0.198326Z" fill="black"/>
<path d="M19.9195 26.0367C19.7671 26.1064 19.6135 26.1732 19.4582 26.2373C18.8785 26.4736 18.6003 27.1349 18.8366 27.714C19.0151 28.1532 19.439 28.4201 19.8866 28.4201C20.0289 28.4201 20.1739 28.3929 20.3139 28.3356C20.5003 28.2597 20.6851 28.1798 20.8675 28.0954C21.4365 27.8336 21.6847 27.1609 21.4229 26.5926C21.1611 26.0242 20.4873 25.7749 19.9195 26.0367Z" fill="black"/>
<path d="M4.25507 21.4529C4.16327 21.3107 4.07487 21.1667 3.98817 21.0205C3.66913 20.4816 2.9744 20.3014 2.43607 20.6205C1.89717 20.9389 1.71753 21.6337 2.036 22.1726C2.138 22.3454 2.24283 22.5154 2.35163 22.6831C2.56867 23.0186 2.93247 23.2011 3.30477 23.2011C3.51557 23.2011 3.72863 23.1421 3.91903 23.0197C4.44433 22.6803 4.5945 21.9788 4.25507 21.4529Z" fill="black"/>
<path d="M2.77502 18.2342C2.72686 18.071 2.68209 17.9067 2.64072 17.7412C2.48716 17.1343 1.87062 16.7677 1.26429 16.9195C0.65739 17.0731 0.289623 17.6885 0.442623 18.296C0.491923 18.4903 0.544623 18.6824 0.600156 18.8734C0.745223 19.3675 1.19742 19.6883 1.68702 19.6883C1.79299 19.6883 1.90066 19.6735 2.00662 19.6418C2.60786 19.4644 2.95182 18.8349 2.77502 18.2342Z" fill="black"/>
<path d="M6.20609 23.7899C5.74992 23.3626 5.03365 23.3842 4.60412 23.8415C4.17629 24.2982 4.19895 25.015 4.65569 25.4434C4.80132 25.5794 4.94979 25.7143 5.10109 25.8446C5.31529 26.0305 5.57935 26.1212 5.84229 26.1212C6.16019 26.1212 6.47525 25.9886 6.69965 25.7296C7.10992 25.2564 7.05835 24.5407 6.58462 24.1316C6.45599 24.0194 6.32962 23.9061 6.20609 23.7899Z" fill="black"/>
<path d="M9.56986 26.0468C9.41573 25.9766 9.26273 25.9029 9.11143 25.8264C8.55213 25.5442 7.871 25.7675 7.58823 26.3251C7.30546 26.8832 7.52873 27.5655 8.0869 27.8483C8.2654 27.9389 8.4473 28.0256 8.63033 28.1095C8.78276 28.1786 8.94256 28.2121 9.09953 28.2121C9.52963 28.2121 9.94103 27.965 10.1314 27.5479C10.391 26.9784 10.1399 26.3064 9.56986 26.0468Z" fill="black"/>
<path d="M1.35772 11.9834C1.46312 12.0134 1.56852 12.0281 1.67279 12.0281C2.16465 12.0281 2.61799 11.7051 2.76135 11.2087C2.80839 11.0461 2.85882 10.8852 2.91265 10.7248C3.11155 10.1315 2.79195 9.48889 2.19809 9.28999C1.60535 9.09279 0.962754 9.41069 0.763287 10.0046C0.69982 10.1944 0.639187 10.3865 0.583654 10.5803C0.409687 11.181 0.75592 11.81 1.35772 11.9834Z" fill="black"/>
<path d="M5.51481 3.20176C5.35954 3.32756 5.20654 3.45449 5.05694 3.58539C4.58434 3.99623 4.53391 4.71193 4.94474 5.18396C5.16914 5.44179 5.48364 5.57383 5.80097 5.57383C6.06447 5.57383 6.32967 5.48259 6.54387 5.29616C6.67307 5.18453 6.80341 5.07459 6.93657 4.96806C7.42391 4.57593 7.50154 3.86193 7.10941 3.37403C6.71727 2.88613 6.00271 2.81076 5.51481 3.20176Z" fill="black"/>
<path d="M2.66282 8.32546C2.85209 8.44616 3.06289 8.5034 3.27142 8.5034C3.64542 8.5034 4.01206 8.31866 4.22796 7.9798C4.31862 7.83813 4.41212 7.69816 4.50846 7.56103C4.86886 7.04933 4.74532 6.34213 4.23362 5.9823C3.72192 5.6219 3.01529 5.74543 2.65489 6.25713C2.53816 6.4226 2.42596 6.59033 2.31772 6.76033C1.98056 7.28846 2.13582 7.98886 2.66282 8.32546Z" fill="black"/>
<path d="M23.2446 5.58569C23.4628 5.78855 23.7399 5.88942 24.0164 5.88942C24.3196 5.88942 24.6227 5.76815 24.846 5.52789C25.2727 5.06945 25.2466 4.35262 24.7882 3.92649C24.642 3.79049 24.4935 3.65732 24.3428 3.52755C23.8685 3.11785 23.1534 3.17225 22.7448 3.64599C22.3357 4.12029 22.3889 4.83599 22.8632 5.24399C22.9919 5.35562 23.1194 5.46952 23.2446 5.58569Z" fill="black"/>
<path d="M9.04745 3.47206C9.20612 3.47206 9.36705 3.43863 9.52062 3.36779C9.67419 3.29696 9.83002 3.22953 9.98755 3.16436C10.5661 2.92466 10.8404 2.26166 10.6007 1.68366C10.3604 1.10566 9.69799 0.831394 9.11999 1.07053C8.93582 1.14703 8.75392 1.22636 8.57315 1.30966C8.00422 1.57146 7.75602 2.24409 8.01782 2.81246C8.20822 3.22726 8.61849 3.47206 9.04745 3.47206Z" fill="black"/>
<path d="M26.6991 18.207C26.6509 18.3708 26.5994 18.5334 26.5455 18.6944C26.3466 19.2877 26.6662 19.9303 27.2601 20.1292C27.3797 20.1688 27.5009 20.1881 27.6205 20.1881C28.0942 20.1881 28.5357 19.8889 28.6949 19.4146C28.7578 19.2259 28.8184 19.0355 28.874 18.844C29.0502 18.2427 28.7057 17.6132 28.1056 17.4381C27.5038 17.2601 26.8753 17.6064 26.6991 18.207Z" fill="black"/>
<path d="M28.2778 16.383C28.2925 16.3835 28.3078 16.3841 28.3225 16.3841C28.9277 16.3841 29.4304 15.9053 29.4542 15.295C29.4621 15.0966 29.4661 14.8972 29.4661 14.6643V14.6382C29.4661 14.0126 28.9583 13.5049 28.3327 13.5049C27.7071 13.5049 27.1994 14.0126 27.1994 14.6382L27.2 14.696C27.2 14.8671 27.1966 15.0371 27.1898 15.206C27.1648 15.8316 27.6527 16.3586 28.2778 16.383Z" fill="black"/>
<path d="M25.198 7.91699C25.2898 8.05809 25.3782 8.20089 25.4643 8.34652C25.6757 8.70465 26.0536 8.90355 26.4418 8.90355C26.6379 8.90355 26.8356 8.85312 27.017 8.74659C27.5559 8.42812 27.7355 7.73339 27.417 7.19449C27.3145 7.02109 27.2085 6.85109 27.0986 6.68222C26.7574 6.15749 26.0548 6.00845 25.5306 6.34959C25.0059 6.69015 24.8563 7.39282 25.198 7.91699Z" fill="black"/>
<path d="M26.792 21.0925C26.2656 20.7536 25.5646 20.9055 25.2252 21.4319C25.1334 21.5753 25.0382 21.7164 24.9402 21.8558C24.5809 22.368 24.705 23.0747 25.2178 23.4339C25.4156 23.5728 25.6423 23.6391 25.8672 23.6391C26.2248 23.6391 26.5761 23.4708 26.7966 23.1557C26.911 22.9919 27.0227 22.8265 27.1315 22.6587C27.4703 22.1329 27.3185 21.4319 26.792 21.0925Z" fill="black"/>
<path d="M21.3532 1.53C21.1735 1.43933 20.9916 1.35263 20.808 1.26933C20.2374 1.01093 19.5659 1.26423 19.3086 1.83487C19.0508 2.40493 19.3035 3.07643 19.8742 3.33427C20.0277 3.40397 20.1807 3.4765 20.332 3.553C20.4958 3.63573 20.6703 3.67483 20.8415 3.67483C21.2557 3.67483 21.6552 3.4476 21.8541 3.05207C22.1357 2.4939 21.9119 1.8122 21.3532 1.53Z" fill="black"/>
<path d="M23.9247 26.2118C24.0816 26.0866 24.2363 25.9579 24.3876 25.8259C24.8602 25.4151 24.9107 24.6994 24.4998 24.2273C24.089 23.7547 23.3733 23.7037 22.9013 24.1151C22.7738 24.2256 22.644 24.3339 22.512 24.4387C22.0224 24.8286 21.9413 25.542 22.3318 26.0316C22.5562 26.3127 22.886 26.4589 23.2186 26.4589C23.4668 26.4583 23.7161 26.3778 23.9247 26.2118Z" fill="black"/>
<path d="M32.8666 31.4126C32.4813 31.4126 32.1413 31.6053 31.9362 31.8988C31.6421 32.1034 31.45 32.4439 31.45 32.8293C31.45 33.4549 31.9577 33.9626 32.5833 33.9626H32.8666C33.4922 33.9626 34 33.4549 34 32.8293V32.5459C34 31.9203 33.4922 31.4126 32.8666 31.4126Z" fill="black"/>
<path d="M24.5673 31.6959H23.9502C23.3246 31.6959 22.8169 32.2037 22.8169 32.8293C22.8169 33.4549 23.3246 33.9626 23.9502 33.9626H24.5673C25.1929 33.9626 25.7007 33.4549 25.7007 32.8293C25.7007 32.2037 25.1929 31.6959 24.5673 31.6959Z" fill="black"/>
<path d="M20.2499 31.6959H19.6333C19.0077 31.6959 18.5 32.2037 18.5 32.8293C18.5 33.4549 19.0077 33.9626 19.6333 33.9626H20.2499C20.8755 33.9626 21.3832 33.4549 21.3832 32.8293C21.3832 32.2037 20.876 31.6959 20.2499 31.6959Z" fill="black"/>
<path d="M28.8835 31.6959H28.267C27.6414 31.6959 27.1337 32.2037 27.1337 32.8293C27.1337 33.4549 27.6414 33.9626 28.267 33.9626H28.8835C29.5091 33.9626 30.0169 33.4549 30.0169 32.8293C30.0169 32.2037 29.5091 31.6959 28.8835 31.6959Z" fill="black"/>
<path d="M15.9335 31.6959H15.3164C14.6908 31.6959 14.1831 32.2037 14.1831 32.8293C14.1831 33.4549 14.6908 33.9626 15.3164 33.9626H15.9335C16.5591 33.9626 17.0669 33.4549 17.0669 32.8293C17.0669 32.2037 16.5597 31.6959 15.9335 31.6959Z" fill="black"/>
<path d="M12.2638 31.8994C12.0586 31.6053 11.7186 31.4126 11.3333 31.4126C10.7077 31.4126 10.2 31.9203 10.2 32.5459V32.8293C10.2 33.4549 10.7077 33.9626 11.3333 33.9626H11.6166C12.2422 33.9626 12.75 33.4549 12.75 32.8293C12.75 32.4445 12.5573 32.1039 12.2638 31.8994Z" fill="black"/>
<path d="M11.3333 22.7794C10.7077 22.7794 10.2 23.2872 10.2 23.9128V24.5299C10.2 25.1554 10.7077 25.6632 11.3333 25.6632C11.9589 25.6632 12.4666 25.1554 12.4666 24.5299V23.9128C12.4666 23.2866 11.9589 22.7794 11.3333 22.7794Z" fill="black"/>
<path d="M12.4666 19.5965C12.4666 18.9709 11.9589 18.4631 11.3333 18.4631C10.7077 18.4631 10.2 18.9709 10.2 19.5965V20.213C10.2 20.8386 10.7077 21.3463 11.3333 21.3463C11.9589 21.3463 12.4666 20.8386 12.4666 20.213V19.5965Z" fill="black"/>
<path d="M12.4666 15.2797C12.4666 14.6541 11.9589 14.1464 11.3333 14.1464C10.7077 14.1464 10.2 14.6541 10.2 15.2797V15.8968C10.2 16.5224 10.7077 17.0301 11.3333 17.0301C11.9589 17.0301 12.4666 16.5224 12.4666 15.8968V15.2797Z" fill="black"/>
<path d="M10.2 11.2959V11.5793C10.2 12.2049 10.7077 12.7126 11.3333 12.7126C11.7186 12.7126 12.0586 12.5199 12.2638 12.2264C12.5579 12.0218 12.75 11.6813 12.75 11.2959C12.75 10.6703 12.2422 10.1626 11.6166 10.1626H11.3333C10.7077 10.1626 10.2 10.6703 10.2 11.2959Z" fill="black"/>
<path d="M15.3164 12.4293H15.933C16.5586 12.4293 17.0663 11.9215 17.0663 11.2959C17.0663 10.6703 16.5586 10.1626 15.933 10.1626H15.3164C14.6908 10.1626 14.1831 10.6703 14.1831 11.2959C14.1831 11.9215 14.6908 12.4293 15.3164 12.4293Z" fill="black"/>
<path d="M24.5668 10.1626H23.9502C23.3246 10.1626 22.8169 10.6703 22.8169 11.2959C22.8169 11.9215 23.3246 12.4293 23.9502 12.4293H24.5668C25.1924 12.4293 25.7001 11.9215 25.7001 11.2959C25.7001 10.6703 25.1924 10.1626 24.5668 10.1626Z" fill="black"/>
<path d="M28.8836 10.1627H28.6937C28.4206 9.77451 27.9253 9.58241 27.4465 9.72521C26.8464 9.90371 26.5053 10.5355 26.6838 11.1351C26.7319 11.296 26.7767 11.4586 26.8181 11.623C26.9478 12.1369 27.4097 12.4792 27.9163 12.4792C28.0081 12.4792 28.1016 12.4679 28.1945 12.4446C28.2115 12.4401 28.2268 12.4322 28.2438 12.4271C28.2517 12.4271 28.2585 12.4293 28.2665 12.4293H28.8836C29.5092 12.4293 30.0169 11.9216 30.0169 11.296C30.0169 10.6704 29.5092 10.1627 28.8836 10.1627Z" fill="black"/>
<path d="M19.6327 12.4293H20.2498C20.8754 12.4293 21.3832 11.9215 21.3832 11.2959C21.3832 10.6703 20.8754 10.1626 20.2498 10.1626H19.6327C19.0071 10.1626 18.4994 10.6703 18.4994 11.2959C18.4994 11.9215 19.0071 12.4293 19.6327 12.4293Z" fill="black"/>
<path d="M32.8666 10.1626H32.5833C31.9577 10.1626 31.45 10.6703 31.45 11.2959C31.45 11.6813 31.6426 12.0213 31.9362 12.2264C32.1407 12.5205 32.4813 12.7126 32.8666 12.7126C33.4922 12.7126 34 12.2049 34 11.5793V11.2959C34 10.6703 33.4922 10.1626 32.8666 10.1626Z" fill="black"/>
<path d="M32.8666 14.1464C32.241 14.1464 31.7333 14.6541 31.7333 15.2797V15.8962C31.7333 16.5218 32.241 17.0296 32.8666 17.0296C33.4922 17.0296 33.9999 16.5218 33.9999 15.8962V15.2797C33.9999 14.6535 33.4922 14.1464 32.8666 14.1464Z" fill="black"/>
<path d="M32.8666 27.0958C32.241 27.0958 31.7333 27.6036 31.7333 28.2292V28.8463C31.7333 29.4719 32.241 29.9796 32.8666 29.9796C33.4922 29.9796 33.9999 29.4719 33.9999 28.8463V28.2292C33.9999 27.6036 33.4922 27.0958 32.8666 27.0958Z" fill="black"/>
<path d="M32.8666 22.7794C32.241 22.7794 31.7333 23.2872 31.7333 23.9128V24.5293C31.7333 25.1549 32.241 25.6626 32.8666 25.6626C33.4922 25.6626 33.9999 25.1549 33.9999 24.5293V23.9128C33.9999 23.2866 33.4922 22.7794 32.8666 22.7794Z" fill="black"/>
<path d="M32.8666 18.4626C32.241 18.4626 31.7333 18.9704 31.7333 19.596V20.2131C31.7333 20.8387 32.241 21.3464 32.8666 21.3464C33.4922 21.3464 33.9999 20.8387 33.9999 20.2131V19.596C33.9999 18.9698 33.4922 18.4626 32.8666 18.4626Z" fill="black"/>
</g>
<defs>
<clipPath id="clip0_77_265">
<rect width="34" height="34" fill="white"/>
</clipPath>
</defs>
</svg>
