<svg width="38" height="38" viewBox="0 0 38 38" fill="none" xmlns="http://www.w3.org/2000/svg">
<path d="M34.5859 17.5903V8.60938C34.5859 6.56316 32.9212 4.89844 30.875 4.89844H7.125C5.07879 4.89844 3.41406 6.56316 3.41406 8.60938V17.5903C1.72225 17.9351 0.445312 19.4344 0.445312 21.2266V27.1641C0.445312 27.5739 0.77759 27.9062 1.1875 27.9062H2.67188V32.3594C2.67188 32.7692 3.00415 33.1016 3.41406 33.1016C3.82397 33.1016 4.15625 32.7692 4.15625 32.3594V27.9062H33.8438V32.3594C33.8438 32.7692 34.176 33.1016 34.5859 33.1016C34.9958 33.1016 35.3281 32.7692 35.3281 32.3594V27.9062H36.8125C37.2223 27.9062 37.5547 27.5739 37.5547 27.1641V21.2266C37.5547 19.4344 36.2778 17.9351 34.5859 17.5903ZM4.89844 8.60938C4.89844 7.38165 5.89727 6.38281 7.125 6.38281H30.875C32.1027 6.38281 33.1016 7.38165 33.1016 8.60938V17.5156H31.6172V15.2891C31.6172 13.6521 30.2854 12.3203 28.6484 12.3203H21.2266C20.3405 12.3203 19.5445 12.711 19 13.3286C18.4556 12.711 17.6595 12.3203 16.7734 12.3203H9.35156C7.71459 12.3203 6.38281 13.6521 6.38281 15.2891V17.5156H4.89844V8.60938ZM19.7422 17.5156V15.2891C19.7422 14.4706 20.4081 13.8047 21.2266 13.8047H28.6484C29.4669 13.8047 30.1328 14.4706 30.1328 15.2891V17.5156H19.7422ZM7.86719 17.5156V15.2891C7.86719 14.4706 8.53308 13.8047 9.35156 13.8047H16.7734C17.5919 13.8047 18.2578 14.4706 18.2578 15.2891V17.5156H7.86719ZM36.0703 26.4219H1.92969V21.2266C1.92969 19.9988 2.92852 19 4.15625 19H33.8438C35.0715 19 36.0703 19.9988 36.0703 21.2266V26.4219Z" fill="black"/>
</svg>
