<svg width="25" height="27" viewBox="0 0 25 27" fill="none" xmlns="http://www.w3.org/2000/svg">
<g clip-path="url(#clip0_101_5326)">
<path d="M11.5464 8.66958C11.5464 8.23405 11.2249 7.88144 10.8277 7.88144H9.68799L11.3358 6.07426C11.5415 5.8487 11.6033 5.51004 11.4917 5.21531C11.3808 4.92058 11.1182 4.72888 10.8277 4.72888H7.95312C7.55599 4.72888 7.23447 5.08149 7.23447 5.51702C7.23447 5.95255 7.55599 6.30516 7.95312 6.30516H9.09286L7.44501 8.11234C7.23934 8.33791 7.17758 8.67656 7.28912 8.97129C7.4001 9.26602 7.66248 9.45772 7.95312 9.45772H10.8277C11.2249 9.45772 11.5464 9.10511 11.5464 8.66958Z" fill="black"/>
<path d="M13.0385 4.24241C13.1493 4.53714 13.4119 4.72884 13.7023 4.72884H16.5769C16.9741 4.72884 17.2956 4.37623 17.2956 3.9407C17.2956 3.50517 16.9741 3.15256 16.5769 3.15256H15.4372L17.0851 1.34538C17.2907 1.11982 17.3525 0.781162 17.2409 0.48643C17.13 0.191699 16.8674 0 16.5769 0H13.7023C13.3052 0 12.9837 0.352611 12.9837 0.78814C12.9837 1.22367 13.3052 1.57628 13.7023 1.57628H14.8421L13.1942 3.38346C12.9885 3.60903 12.9268 3.94768 13.0385 4.24241Z" fill="black"/>
<path d="M22.374 12.6102H12.265C11.0762 12.6102 10.109 13.6709 10.109 14.9747V18.1272C10.109 18.5627 10.4305 18.9154 10.8277 18.9154H24.53V14.9747C24.53 13.6709 23.5628 12.6102 22.374 12.6102Z" fill="black"/>
<path d="M8.67174 18.1272V17.339H1.4373V8.66949C1.4373 8.23396 1.11578 7.88135 0.718652 7.88135C0.321522 7.88135 0 8.23396 0 8.66949V26.1137C0 26.5492 0.321522 26.9018 0.718652 26.9018C1.11578 26.9018 1.4373 26.5492 1.4373 26.1137V23.6967H23.0927V26.1137C23.0927 26.549 23.4144 26.9018 23.8113 26.9018C24.2083 26.9018 24.53 26.549 24.53 26.1137V20.4916H10.8277C9.63705 20.4916 8.67174 19.4329 8.67174 18.1272Z" fill="black"/>
<path d="M8.67178 13.3984C8.67178 14.7041 7.70646 15.7628 6.51582 15.7628C5.32518 15.7628 4.35986 14.7041 4.35986 13.3984C4.35986 12.0926 5.32518 11.0339 6.51582 11.0339C7.70646 11.0339 8.67178 12.0926 8.67178 13.3984Z" fill="black"/>
</g>
<defs>
<clipPath id="clip0_101_5326">
<rect width="24.53" height="26.9019" fill="white"/>
</clipPath>
</defs>
</svg>
