<svg width="35" height="35" viewBox="0 0 35 35" fill="none" xmlns="http://www.w3.org/2000/svg">
<g clip-path="url(#clip0_77_351)">
<path d="M26.8092 33.4445H8.1425C3.85494 33.4445 0.364624 29.9542 0.364624 25.6666V18.6666H34.5867V25.6666C34.5867 29.9542 31.0964 33.4445 26.8092 33.4445ZM1.92008 20.2221V25.6666C1.92008 29.0986 4.71057 31.8888 8.1425 31.8888H26.8092C30.2411 31.8888 33.0313 29.0986 33.0313 25.6666V20.2221H1.92008Z" fill="black"/>
<path d="M9.69788 32.6666H11.2533V35H9.69788V32.6666Z" fill="black"/>
<path d="M23.6979 32.6666H25.2533V35H23.6979V32.6666Z" fill="black"/>
<path d="M6.58671 19.4445H5.03125V5.44454C5.03125 2.44014 7.47139 0 10.4758 0C13.4799 0 15.92 2.44014 15.92 5.44454V6.22213H14.3646V5.44454C14.3646 3.29578 12.6243 1.55546 10.4758 1.55546C8.32703 1.55546 6.58671 3.29578 6.58671 5.44454V19.4445Z" fill="black"/>
<path d="M20.5867 12.4446H9.69788V10.8888C9.69788 7.88473 12.138 5.44458 15.1424 5.44458C18.1465 5.44458 20.5867 7.88473 20.5867 10.8888V12.4446ZM11.2533 10.8888H19.0312C19.0312 8.74036 17.2909 7.00004 15.1424 7.00004C12.9937 7.00004 11.2533 8.74036 11.2533 10.8888Z" fill="black"/>
</g>
<defs>
<clipPath id="clip0_77_351">
<rect width="35" height="35" fill="white"/>
</clipPath>
</defs>
</svg>
