<svg width="29" height="28" viewBox="0 0 29 28" fill="none" xmlns="http://www.w3.org/2000/svg">
<path d="M12.5802 0C5.64367 0 0 5.53155 0 12.3303C0 19.1294 5.64367 24.6605 12.5802 24.6605C19.5171 24.6605 25.1604 19.1294 25.1604 12.3303C25.1604 5.53155 19.5171 0 12.5802 0ZM12.5802 22.3842C6.92415 22.3842 2.3225 17.874 2.3225 12.3303C2.3225 6.78664 6.92415 2.27636 12.5802 2.27636C18.2363 2.27636 22.8379 6.78659 22.8379 12.3303C22.8379 17.874 18.2363 22.3842 12.5802 22.3842Z" fill="white"/>
<path d="M28.2273 26.0583L21.5694 19.5327C21.1158 19.0881 20.3811 19.0881 19.9274 19.5327C19.4737 19.977 19.4737 20.6978 19.9274 21.1421L26.5852 27.6677C26.8121 27.89 27.109 28.0012 27.4063 28.0012C27.7031 28.0012 28.0004 27.89 28.2273 27.6677C28.6809 27.2234 28.6809 26.5026 28.2273 26.0583Z" fill="white"/>
</svg>
