<svg width="12" height="17" viewBox="0 0 12 17" fill="none" xmlns="http://www.w3.org/2000/svg">
<path d="M5.84904 0C2.86156 0 0.447998 2.4501 0.447998 5.48288C0.447998 5.85982 0.481787 6.21958 0.549249 6.57945C0.954357 9.69783 4.80257 11.9767 5.88278 16.4144C6.94614 12.0452 11.2838 8.824 11.2838 5.48288H11.25C11.25 2.45013 8.83638 0 5.84899 0H5.84904ZM5.84904 2.17592C7.55371 2.17592 8.93776 3.58097 8.93776 5.31144C8.93776 7.04191 7.55368 8.44696 5.84904 8.44696C4.1444 8.44696 2.76032 7.04191 2.76032 5.31144C2.76032 3.58097 4.14428 2.17592 5.84904 2.17592Z" fill="#D6A643"/>
</svg>
