<svg width="39" height="45" viewBox="0 0 39 45" fill="none" xmlns="http://www.w3.org/2000/svg">
<path d="M37.3276 7.66323C31.0646 5.93483 25.0652 3.40141 19.4877 0.129706C19.3438 0.0448549 19.1789 0 19.0107 0C18.8425 0 18.6775 0.0448549 18.5336 0.129706C12.9672 3.42326 6.96432 5.95799 0.692366 7.66323C0.492427 7.7193 0.316804 7.83764 0.192327 8.00017C0.0678496 8.1627 0.0013601 8.3605 0.00301027 8.56334V18.1014C-0.052491 21.8194 0.659988 25.5101 2.09801 28.954C3.53603 32.3978 5.67019 35.5243 8.37337 38.1472C12.484 42.1563 17.2718 44.3744 19.0107 44.3744C20.7495 44.3744 25.5374 42.1563 29.648 38.1472C32.3507 35.524 34.4844 32.3975 35.9222 28.9537C37.36 25.5099 38.0724 21.8192 38.017 18.1014V8.56334C38.0187 8.3605 37.9522 8.1627 37.8277 8.00017C37.7032 7.83764 37.5276 7.7193 37.3276 7.66323ZM36.1424 18.1014C36.1959 21.5723 35.5322 25.0181 34.1908 28.2335C32.8495 31.4489 30.8581 34.3682 28.3351 36.8173C24.293 40.7597 19.9715 42.5113 19.0107 42.5113C18.0499 42.5113 13.7283 40.7597 9.6849 36.8173C7.16244 34.3679 5.17139 31.4485 3.83033 28.2331C2.48926 25.0177 1.82561 21.5721 1.87892 18.1014V9.27213C7.88423 7.57716 13.6418 5.13824 19.0107 2.01505C24.3906 5.11718 30.1454 7.55491 36.1424 9.27213V18.1014Z" fill="black"/>
<path d="M10.7004 9.16614C10.6566 9.05404 10.5905 8.95147 10.506 8.86438C10.4214 8.77729 10.32 8.70738 10.2076 8.65867C10.0951 8.60995 9.97395 8.58343 9.85097 8.58058C9.72799 8.57773 9.60564 8.59863 9.49098 8.64207C7.8153 9.29716 6.09661 9.90375 4.38465 10.4396C4.19261 10.5014 4.02557 10.6208 3.90751 10.7809C3.78946 10.941 3.72645 11.1334 3.72754 11.3306V14.9362C3.72754 15.1794 3.82664 15.4127 4.00304 15.5846C4.17945 15.7566 4.41871 15.8533 4.66818 15.8533C4.91765 15.8533 5.15691 15.7566 5.33332 15.5846C5.50972 15.4127 5.60882 15.1794 5.60882 14.9362V12.0144C7.14744 11.5192 8.68472 10.9663 10.1871 10.3807C10.4184 10.2838 10.6017 10.1024 10.6976 9.8754C10.7936 9.64841 10.7946 9.39383 10.7004 9.16614Z" fill="black"/>
<path d="M12.4799 9.34518C12.6096 9.34536 12.7379 9.31856 12.8561 9.26658H12.8736C13.1026 9.16367 13.2811 8.97735 13.3708 8.74759C13.4604 8.51783 13.4542 8.26295 13.3533 8.03764C13.3053 7.92615 13.235 7.82513 13.1465 7.74045C13.058 7.65577 12.953 7.58914 12.8378 7.54449C12.7225 7.49984 12.5993 7.47806 12.4753 7.48039C12.3513 7.48273 12.2291 7.50916 12.1157 7.55812L12.1009 7.56468C11.8718 7.66708 11.693 7.85305 11.6031 8.08263C11.5131 8.3122 11.5191 8.56701 11.6198 8.79229C11.6925 8.95602 11.8126 9.09552 11.9653 9.19373C12.1181 9.29193 12.2969 9.34456 12.4799 9.34518Z" fill="black"/>
<path d="M30.1816 30.0963C30.0788 30.0293 29.9632 29.9832 29.8417 29.9606C29.7203 29.938 29.5954 29.9394 29.4745 29.9646C29.3536 29.9899 29.2391 30.0386 29.1378 30.1078C29.0365 30.177 28.9505 30.2653 28.8849 30.3675C28.0963 31.5642 27.1937 32.6859 26.1893 33.7176C25.3559 34.5761 24.4575 35.3723 23.5017 36.0995C23.3026 36.2521 23.1726 36.4746 23.1395 36.7194C23.1063 36.9642 23.1727 37.2119 23.3244 37.4097C23.3975 37.5071 23.4899 37.5891 23.5962 37.6509C23.7025 37.7127 23.8204 37.7531 23.943 37.7696C24.0656 37.7861 24.1904 37.7784 24.3099 37.747C24.4294 37.7155 24.5411 37.6609 24.6386 37.5865C25.67 36.8019 26.6398 35.9431 27.5398 35.0173C28.6266 33.9 29.6029 32.6854 30.4558 31.3894C30.5924 31.1817 30.6402 30.93 30.5889 30.6884C30.5377 30.4467 30.3915 30.2342 30.1816 30.0963Z" fill="black"/>
<path d="M21.3221 37.5635L21.2684 37.595C21.0524 37.7223 20.8959 37.9267 20.8322 38.1648C20.7684 38.4029 20.8025 38.6558 20.9271 38.8698C21.0072 39.0101 21.124 39.1272 21.2656 39.2091C21.4073 39.2911 21.5687 39.335 21.7333 39.3363C21.8989 39.3346 22.061 39.2893 22.2023 39.2052L22.2655 39.1685C22.481 39.0401 22.6366 38.8348 22.6991 38.5962C22.7616 38.3575 22.7261 38.1045 22.6001 37.8911C22.5389 37.7871 22.4571 37.696 22.3595 37.6231C22.2619 37.5502 22.1504 37.4969 22.0314 37.4665C21.9125 37.436 21.7886 37.4289 21.6668 37.4456C21.545 37.4622 21.4279 37.5023 21.3221 37.5635Z" fill="black"/>
<path d="M12.6185 20.2844C12.3386 20.003 12.0036 19.7792 11.6334 19.6264C11.2631 19.4736 10.8652 19.3948 10.4631 19.3948C10.061 19.3948 9.66306 19.4736 9.2928 19.6264C8.92254 19.7792 8.58754 20.003 8.30769 20.2844C7.73566 20.8596 7.41576 21.6293 7.41576 22.4305C7.41576 23.2317 7.73566 24.0014 8.30769 24.5766L13.844 30.0898C14.1241 30.3712 14.4592 30.5948 14.8296 30.7475C15.2 30.9003 15.598 30.979 16.0001 30.979C16.4022 30.979 16.8003 30.9003 17.1706 30.7475C17.541 30.5948 17.8761 30.3712 18.1562 30.0898L29.7126 18.5825C30.2847 18.0074 30.6046 17.2376 30.6046 16.4365C30.6046 15.6353 30.2847 14.8656 29.7126 14.2904C29.4327 14.0089 29.0976 13.7851 28.7272 13.6322C28.3568 13.4794 27.9587 13.4006 27.5566 13.4006C27.1544 13.4006 26.7563 13.4794 26.3859 13.6322C26.0156 13.7851 25.6805 14.0089 25.4005 14.2904L15.9941 23.6503L12.6185 20.2844ZM26.7281 15.6097C26.8358 15.5012 26.9647 15.4149 27.1072 15.3559C27.2498 15.297 27.4031 15.2666 27.5579 15.2666C27.7127 15.2666 27.866 15.297 28.0086 15.3559C28.1511 15.4149 28.28 15.5012 28.3877 15.6097C28.6081 15.831 28.7314 16.1273 28.7314 16.4358C28.7314 16.7442 28.6081 17.0406 28.3877 17.2618L16.8312 28.7692C16.7234 28.8774 16.5944 28.9634 16.4519 29.0221C16.3094 29.0808 16.1562 29.1111 16.0015 29.1111C15.8467 29.1111 15.6936 29.0808 15.551 29.0221C15.4085 28.9634 15.2795 28.8774 15.1717 28.7692L9.63399 23.2572C9.41412 23.0354 9.29122 22.739 9.29122 22.4305C9.29122 22.122 9.41412 21.8256 9.63399 21.6038C9.74194 21.4956 9.87105 21.4095 10.0137 21.3507C10.1563 21.292 10.3096 21.2617 10.4644 21.2617C10.6193 21.2617 10.7726 21.292 10.9152 21.3507C11.0578 21.4095 11.1869 21.4956 11.2949 21.6038L15.3383 25.63C15.4244 25.7166 15.5274 25.7855 15.6414 25.8326C15.7553 25.8796 15.8777 25.9039 16.0015 25.9039C16.1252 25.9039 16.2476 25.8796 16.3616 25.8326C16.4755 25.7855 16.5785 25.7166 16.6646 25.63L26.7281 15.6097Z" fill="black"/>
</svg>
