<svg width="50" height="50" viewBox="0 0 50 50" fill="none" xmlns="http://www.w3.org/2000/svg">
<path d="M48.8462 26.0193H1.15385C0.586538 26.0193 0.128204 25.5609 0.128204 24.9936C0.128204 24.4263 0.586538 23.968 1.15385 23.968H46.3686L40.1442 17.7436C39.7436 17.343 39.7436 16.6923 40.1442 16.2917C40.5449 15.8911 41.1955 15.8911 41.5962 16.2917L49.5737 24.2693C49.8686 24.5641 49.9551 25.0032 49.7949 25.3878C49.6346 25.7693 49.2596 26.0193 48.8462 26.0193Z" fill="black"/>
<path d="M40.859 34.0064C40.5962 34.0064 40.3333 33.9071 40.1346 33.7052C39.734 33.3045 39.734 32.6539 40.1346 32.2532L48.1218 24.2661C48.5224 23.8654 49.1731 23.8654 49.5737 24.2661C49.9744 24.6667 49.9744 25.3173 49.5737 25.718L41.5865 33.7052C41.3846 33.9071 41.1218 34.0064 40.859 34.0064Z" fill="black"/>
</svg>
