<svg width="38" height="38" viewBox="0 0 38 38" fill="none" xmlns="http://www.w3.org/2000/svg">
<g clip-path="url(#clip0_27_5)">
<path d="M37.7489 18.3913L29.1127 9.75502C28.8025 9.39276 28.2573 9.35053 27.895 9.66083C27.5327 9.97106 27.4905 10.5163 27.8008 10.8785C27.8298 10.9123 27.8612 10.9438 27.895 10.9727L35.0544 18.1408H0.863594C0.386673 18.1408 0 18.5274 0 19.0044C0 19.4814 0.386673 19.868 0.863594 19.868H35.0544L27.895 27.0274C27.5327 27.3377 27.4905 27.8829 27.8008 28.2451C28.1111 28.6074 28.6563 28.6496 29.0185 28.3393C29.0523 28.3104 29.0838 28.2789 29.1127 28.2451L37.7489 19.6089C38.0837 19.2721 38.0837 18.7281 37.7489 18.3913Z" fill="black"/>
</g>
<defs>
<clipPath id="clip0_27_5">
<rect width="38" height="38" fill="white"/>
</clipPath>
</defs>
</svg>
