<svg width="22" height="18" viewBox="0 0 22 18" fill="none" xmlns="http://www.w3.org/2000/svg">
<path d="M12.0516 2.59202V2.59282C11.7839 2.60625 11.5411 2.75366 11.4058 2.98506C11.2705 3.21634 11.261 3.50041 11.3806 3.7403C11.5001 3.98009 11.7328 4.14346 11.999 4.17456C14.4354 4.50287 16.295 6.49324 16.459 8.94626V8.94639C16.4626 9.16385 16.5552 9.37041 16.7154 9.51768C16.8756 9.66495 17.089 9.74006 17.3061 9.72557C17.5231 9.71094 17.7248 9.60793 17.8638 9.44058C18.0027 9.27324 18.0671 9.05618 18.0415 8.84007C17.8278 5.64334 15.3851 3.02917 12.2099 2.60144H12.2098C12.1575 2.5932 12.1045 2.59027 12.0516 2.59253L12.0516 2.59202ZM7.48545 3.33331C6.09576 3.33305 4.86573 4.4678 4.96237 5.8858C5.1462 8.58089 6.05391 11.1676 7.94285 13.051C9.84135 14.9442 12.7227 15.9726 15.1281 16.0369C16.529 16.0744 17.6604 14.9027 17.6605 13.5138C17.6597 13.0549 17.5342 12.6056 17.2968 12.2128C17.2346 12.1081 17.1276 12.0378 17.0068 12.0221L14.3806 11.6847C14.2584 11.6696 14.1361 11.712 14.0494 11.7996L13.1174 12.7316C11.9966 12.3777 10.8317 11.7778 10.023 10.9731C9.21603 10.1653 8.62095 9.00345 8.26526 7.8816L9.20276 6.94346C9.29102 6.85599 9.33315 6.73238 9.31667 6.60929L8.97401 3.9893C8.95899 3.86914 8.88987 3.76227 8.78633 3.69927C8.39396 3.46121 7.94415 3.33467 7.48532 3.33334L7.48545 3.33331ZM12.1098 5.61674C11.8598 5.60996 11.6212 5.72148 11.4658 5.91754C11.3105 6.11359 11.2567 6.37133 11.3205 6.61323C11.3844 6.85501 11.5584 7.05266 11.7903 7.14651C12.6449 7.51418 13.2949 8.23567 13.5697 9.1245H13.5698C13.6278 9.3308 13.7667 9.5048 13.9547 9.60715C14.1429 9.70963 14.3645 9.7317 14.5691 9.66843C14.7738 9.60516 14.9442 9.46187 15.0418 9.27112C15.1393 9.08038 15.1557 8.8584 15.0872 8.65543C14.6754 7.32331 13.6985 6.23841 12.4177 5.6873C12.3208 5.64343 12.2161 5.6194 12.1098 5.61674Z" fill="#D6A643"/>
</svg>
