<svg width="20" height="20" viewBox="0 0 20 20" fill="none" xmlns="http://www.w3.org/2000/svg">
<path d="M8.80758 0C3.95121 0 0 3.94391 0 8.7913C0 13.639 3.95121 17.5826 8.80758 17.5826C13.6642 17.5826 17.6152 13.639 17.6152 8.7913C17.6152 3.94391 13.6642 0 8.80758 0ZM8.80758 15.9596C4.84769 15.9596 1.62602 12.7439 1.62602 8.79134C1.62602 4.83877 4.84769 1.62301 8.80758 1.62301C12.7675 1.62301 15.9891 4.83874 15.9891 8.7913C15.9891 12.7439 12.7675 15.9596 8.80758 15.9596Z" fill="white"/>
<path d="M19.762 18.5779L15.1007 13.9253C14.7831 13.6082 14.2687 13.6082 13.9511 13.9253C13.6335 14.242 13.6335 14.756 13.9511 15.0728L18.6124 19.7254C18.7711 19.8839 18.979 19.9632 19.1872 19.9632C19.395 19.9632 19.6031 19.8839 19.762 19.7254C20.0796 19.4086 20.0796 18.8947 19.762 18.5779Z" fill="white"/>
</svg>
