<svg width="28" height="27" viewBox="0 0 28 27" fill="none" xmlns="http://www.w3.org/2000/svg">
<g clip-path="url(#clip0_41_57)">
<path d="M21.3256 12.9199C21.3256 12.0476 20.6159 11.3379 19.7435 11.3379H18.1615C17.2892 11.3379 16.5795 12.0476 16.5795 12.9199V18.457H21.3256V12.9199Z" fill="#D6A643"/>
<path d="M3.92322 3.95508C3.92322 2.64674 4.98792 1.58203 6.29626 1.58203H7.8783C8.94743 1.58203 9.85351 2.2931 10.1492 3.267C8.39731 3.67316 7.08728 5.24549 7.08728 7.11914V7.91016H14.9974V7.11914C14.9974 5.18548 13.6022 3.5726 11.7659 3.23156C11.4248 1.39504 9.81175 0 7.8783 0H6.29626C4.1157 0 2.34119 1.77398 2.34119 3.95508V11.3379H3.92322V3.95508Z" fill="#D6A643"/>
<path d="M22.9076 20.0391H14.9974V17.666H2.34119V20.0391C2.34119 22.1089 3.48289 23.9168 5.16944 24.8668L4.15493 25.8813L5.27353 27L6.80257 25.471C7.15067 25.5397 7.51032 25.5762 7.8783 25.5762H20.5345C20.9025 25.5762 21.2622 25.5397 21.6103 25.471L23.1393 27L24.258 25.8813L23.2435 24.8668C24.93 23.9168 26.0717 22.1089 26.0717 20.0391V17.666H22.9076V20.0391Z" fill="#D6A643"/>
<path d="M26.1244 12.9199H22.9076V16.084H26.1244C26.9966 16.084 27.7064 15.3742 27.7064 14.502C27.7064 13.6297 26.9966 12.9199 26.1244 12.9199Z" fill="#D6A643"/>
<path d="M14.9974 12.9199H2.28845C1.41623 12.9199 0.706421 13.6297 0.706421 14.502C0.706421 15.3742 1.41623 16.084 2.28845 16.084H14.9974V12.9199Z" fill="#D6A643"/>
</g>
<defs>
<clipPath id="clip0_41_57">
<rect width="27" height="27" fill="white" transform="translate(0.706421)"/>
</clipPath>
</defs>
</svg>
