<svg width="18" height="16" viewBox="0 0 18 16" fill="none" xmlns="http://www.w3.org/2000/svg">
<path d="M15.9839 1.49287C14.8061 0.378116 13.5759 -0.114882 12.328 0.0224527C10.6824 0.206002 9.48768 1.43636 9.0265 1.99052C8.56539 1.43636 7.37071 0.206005 5.72502 0.0224527C4.47496 -0.11477 3.24695 0.378116 2.06909 1.49287C0.866151 2.63133 0.448564 4.29861 0.860566 6.31453C1.6608 10.2279 5.44259 14.6311 8.95353 15.7371C9.001 15.7521 9.05137 15.7521 9.09884 15.7371C12.6101 14.6311 16.3917 10.2279 17.1918 6.31453C17.6038 4.29848 17.1862 2.63127 15.9833 1.49287H15.9839ZM5.31679 1.68709C4.59758 1.68709 3.85062 2.04905 3.09637 2.76314C2.33806 3.48077 2.09838 4.55296 2.38423 5.95029C2.41522 6.10195 2.32667 6.25198 2.18647 6.28551C2.16802 6.28991 2.1491 6.29217 2.13018 6.29217C2.00832 6.29204 1.90283 6.20039 1.87648 6.07158C1.54642 4.45866 1.84166 3.20307 2.75411 2.33946C3.60563 1.53345 4.46808 1.12453 5.3168 1.12453C5.46036 1.12453 5.57677 1.25046 5.57677 1.40576C5.57677 1.56106 5.46036 1.68698 5.3168 1.68698L5.31679 1.68709Z" fill="#D6A643"/>
</svg>
