<svg width="25" height="24" viewBox="0 0 25 24" fill="none" xmlns="http://www.w3.org/2000/svg">
<g clip-path="url(#clip0_41_30)">
<path d="M24.5478 11.6155L19.0934 6.161C18.8975 5.93221 18.5531 5.90554 18.3243 6.10152C18.0955 6.29746 18.0689 6.64179 18.2648 6.87059C18.2831 6.89191 18.303 6.91184 18.3243 6.93007L22.846 11.4573H1.25185C0.950635 11.4573 0.706421 11.7015 0.706421 12.0027C0.706421 12.304 0.950635 12.5482 1.25185 12.5482H22.846L18.3243 17.0699C18.0955 17.2658 18.0689 17.6102 18.2648 17.839C18.4608 18.0678 18.8051 18.0944 19.0339 17.8984C19.0552 17.8802 19.0752 17.8603 19.0934 17.839L24.5479 12.3845C24.7593 12.1718 24.7593 11.8282 24.5478 11.6155Z" fill="white"/>
</g>
<defs>
<clipPath id="clip0_41_30">
<rect width="24" height="24" fill="white" transform="translate(0.706421)"/>
</clipPath>
</defs>
</svg>
