<svg width="29" height="28" viewBox="0 0 29 28" fill="none" xmlns="http://www.w3.org/2000/svg">
<g clip-path="url(#clip0_41_49)">
<path d="M13.8861 9.02344C13.8861 8.57013 13.5191 8.20312 13.0658 8.20312H11.7648L13.6458 6.32217C13.8806 6.0874 13.9511 5.73492 13.8237 5.42816C13.6971 5.1214 13.3973 4.92188 13.0658 4.92188H9.78455C9.33124 4.92188 8.96424 5.28888 8.96424 5.74219C8.96424 6.1955 9.33124 6.5625 9.78455 6.5625H11.0855L9.20456 8.44345C8.96979 8.67822 8.8993 9.0307 9.02662 9.33746C9.15329 9.64423 9.45279 9.84375 9.78455 9.84375H13.0658C13.5191 9.84375 13.8861 9.47675 13.8861 9.02344Z" fill="#D6A643"/>
<path d="M15.5893 4.41559C15.7158 4.72235 16.0155 4.92188 16.347 4.92188H19.6283C20.0816 4.92188 20.4486 4.55487 20.4486 4.10156C20.4486 3.64825 20.0816 3.28125 19.6283 3.28125H18.3273L20.2083 1.4003C20.4431 1.16553 20.5136 0.813049 20.3862 0.506287C20.2596 0.199524 19.9598 0 19.6283 0H16.347C15.8937 0 15.5267 0.367004 15.5267 0.820312C15.5267 1.27362 15.8937 1.64062 16.347 1.64062H17.648L15.7671 3.52158C15.5323 3.75635 15.4618 4.10883 15.5893 4.41559Z" fill="#D6A643"/>
<path d="M26.2455 13.125H14.7064C13.3495 13.125 12.2455 14.229 12.2455 15.5859V18.8672C12.2455 19.3205 12.6125 19.6875 13.0658 19.6875H28.7064V15.5859C28.7064 14.229 27.6024 13.125 26.2455 13.125Z" fill="#D6A643"/>
<path d="M10.6049 18.8672V18.0469H2.34705V9.02344C2.34705 8.57013 1.98004 8.20312 1.52673 8.20312C1.07343 8.20312 0.706421 8.57013 0.706421 9.02344V27.1797C0.706421 27.633 1.07343 28 1.52673 28C1.98004 28 2.34705 27.633 2.34705 27.1797V24.6641H27.0658V27.1797C27.0658 27.6328 27.433 28 27.8861 28C28.3392 28 28.7064 27.6328 28.7064 27.1797V21.3281H13.0658C11.7067 21.3281 10.6049 20.2263 10.6049 18.8672Z" fill="#D6A643"/>
<path d="M10.6049 13.9453C10.6049 15.3044 9.50299 16.4062 8.14392 16.4062C6.78485 16.4062 5.68298 15.3044 5.68298 13.9453C5.68298 12.5862 6.78485 11.4844 8.14392 11.4844C9.50299 11.4844 10.6049 12.5862 10.6049 13.9453Z" fill="#D6A643"/>
</g>
<defs>
<clipPath id="clip0_41_49">
<rect width="28" height="28" fill="white" transform="translate(0.706421)"/>
</clipPath>
</defs>
</svg>
